<?xml version="1.0" encoding="UTF-8" standalone="no"?>
<!DOCTYPE svg PUBLIC "-//W3C//DTD SVG 20010904//EN"
"http://www.w3.org/TR/2001/REC-SVG-20010904/DTD/svg10.dtd">
<!-- Created with Inkscape (http://www.inkscape.org/) -->
<svg
   id="svg1"
   sodipodi:version="0.32"
   inkscape:version="0.40"
   width="550.00000pt"
   height="500.00000pt"
   sodipodi:docbase="/home/euxneks/Incoming/LaughingMan"
   sodipodi:docname="LaughingMan.svg"
   inkscape:export-filename="/home/euxneks/Incoming/LaughingMan/LaughingManPreview.png"
   inkscape:export-xdpi="72.000000"
   inkscape:export-ydpi="72.000000"
   xmlns="http://www.w3.org/2000/svg"
   xmlns:cc="http://web.resource.org/cc/"
   xmlns:inkscape="http://www.inkscape.org/namespaces/inkscape"
   xmlns:sodipodi="http://sodipodi.sourceforge.net/DTD/sodipodi-0.dtd"
   xmlns:rdf="http://www.w3.org/1999/02/22-rdf-syntax-ns#"
   xmlns:dc="http://purl.org/dc/elements/1.1/"
   xmlns:xlink="http://www.w3.org/1999/xlink">
  <defs
     id="defs3" />
  <sodipodi:namedview
     id="base"
     pagecolor="#ffffff"
     bordercolor="#666666"
     borderopacity="1.0"
     inkscape:pageopacity="0.0"
     inkscape:pageshadow="2"
     inkscape:zoom="1.0000000"
     inkscape:cx="468.50369"
     inkscape:cy="101.56894"
     inkscape:window-width="1268"
     inkscape:window-height="812"
     showguides="false"
     inkscape:guide-bbox="false"
     inkscape:window-x="0"
     inkscape:window-y="24"
     inkscape:current-layer="svg1">
    <sodipodi:guide
       orientation="vertical"
       position="701.35699"
       id="guide2794" />
    <sodipodi:guide
       orientation="horizontal"
       position="465.93087"
       id="guide2800" />
    <sodipodi:guide
       orientation="horizontal"
       position="515.52690"
       id="guide2801" />
    <sodipodi:guide
       orientation="horizontal"
       position="382.92479"
       id="guide3424" />
    <sodipodi:guide
       orientation="vertical"
       position="581.03302"
       id="guide3426" />
    <sodipodi:guide
       orientation="horizontal"
       position="437.98823"
       id="guide3446" />
    <sodipodi:guide
       orientation="horizontal"
       position="739.62613"
       id="guide3453" />
  </sodipodi:namedview>
  <metadata
     id="metadata4">
    <rdf:RDF
       id="RDF5">
      <cc:Work
         rdf:about=""
         id="Work6">
        <dc:format
           id="format7">image/svg+xml</dc:format>
        <dc:type
           id="type9"
           rdf:resource="http://purl.org/dc/dcmitype/StillImage" />
      </cc:Work>
    </rdf:RDF>
  </metadata>
  <rect
     style="fill:#ffffff;fill-opacity:1.0000000;stroke:none;stroke-width:1.2500000;stroke-linecap:square;stroke-miterlimit:4.0000000;stroke-opacity:1.0000000"
     id="rect1143"
     width="687.50000"
     height="625.00000"
     x="0.0000000"
     y="3.7969627e-14"
     inkscape:export-filename="/home/euxneks/Incoming/LaughingMan/LaughingManPreview.png"
     inkscape:export-xdpi="72.000000"
     inkscape:export-ydpi="72.000000" />
  <g
     id="g1208"
     inkscape:export-filename="/home/euxneks/Incoming/LaughingMan/LaughingManPreview.png"
     inkscape:export-xdpi="72.000000"
     inkscape:export-ydpi="72.000000">
    <path
       style="fill:#23498c;fill-opacity:1.0000000;fill-rule:evenodd;stroke:none;stroke-width:1.0000000pt;stroke-linecap:butt;stroke-linejoin:miter;stroke-opacity:1.0000000;"
       d="M 352.84375,-0.40625000 C 62.073849,-0.40624999 -173.90625,235.57388 -173.90625,526.34375 C -173.90626,817.11370 62.073864,1053.0938 352.84375,1053.0938 C 617.76645,1053.0939 837.14477,857.17887 874.06250,602.43750 L 832.90625,602.43750 C 796.33605,834.60017 595.22957,1012.3438 352.84375,1012.3438 C 84.561594,1012.3437 -133.15625,794.59463 -133.15625,526.31250 C -133.15625,258.03030 84.561589,40.281250 352.84375,40.281250 C 594.35549,40.281251 794.84949,216.78602 832.46875,447.71875 L 873.71875,447.71875 C 835.72398,194.20178 616.89241,-0.40625000 352.84375,-0.40625000 z "
       id="path3026"
       transform="matrix(0.581870,0.000000,0.000000,0.581870,107.4408,5.986311)" />
    <path
       style="fill:#23498c;fill-opacity:1.0000000;fill-rule:evenodd;stroke:none;stroke-width:1.0000000pt;stroke-linecap:butt;stroke-linejoin:miter;stroke-opacity:1.0000000;"
       d="M 605.75327,238.37969 L 605.75327,274.41781 C 605.77519,274.41776 605.80405,274.41780 605.82600,274.41781 C 622.22934,274.41781 637.74746,287.93628 637.74745,304.58842 C 637.74745,321.24056 622.22931,334.81760 605.82600,334.81761 C 605.80407,334.81761 605.77518,334.81765 605.75327,334.81761 L 605.75327,370.79714 C 605.80232,370.79725 605.84064,370.83576 605.88971,370.83576 C 642.58989,370.83576 674.60527,341.13958 674.60528,304.58842 C 674.60528,268.03724 642.59893,238.37969 605.89874,238.37969 C 605.84966,238.37969 605.80233,238.37958 605.75327,238.37969 z "
       id="path2792"
       sodipodi:nodetypes="ccccccccccc"
       transform="translate(6.250030,6.712818)" />
    <rect
       style="fill:#23498c;fill-opacity:1.0000000;fill-rule:evenodd;stroke:none;stroke-width:1.0000000pt;stroke-linecap:butt;stroke-linejoin:miter;stroke-opacity:1.0000000;"
       id="rect2802"
       width="845.02576"
       height="61.995037"
       x="31.670471"
       y="407.95355"
       transform="matrix(0.581870,0.000000,0.000000,0.581870,104.4958,7.705842)" />
    <rect
       style="fill:#23498c;fill-opacity:1.0000000;fill-rule:evenodd;stroke:none;stroke-width:1.0000000pt;stroke-linecap:butt;stroke-linejoin:miter;stroke-opacity:1.0000000;"
       id="rect3427"
       width="209.45699"
       height="61.901375"
       x="667.23926"
       y="573.70618"
       transform="matrix(0.581870,0.000000,0.000000,0.581870,104.4958,7.705842)" />
    <path
       style="fill:#23498c;fill-opacity:1.0000000;fill-rule:evenodd;stroke:none;stroke-width:1.0000000pt;stroke-linecap:butt;stroke-linejoin:miter;stroke-opacity:1.0000000;"
       d="M 215.93750,489.53125 C 178.73763,489.53125 148.53124,519.73761 148.53125,556.93750 C 148.53125,557.02183 148.53094,557.10324 148.53125,557.18750 C 161.35259,536.00968 186.56681,521.59375 215.56250,521.59375 C 245.09987,521.59374 270.66416,536.57799 283.25000,558.40625 C 283.26070,557.91228 283.31250,557.43402 283.31250,556.93750 C 283.31250,519.73763 253.13736,489.53124 215.93750,489.53125 z "
       id="path3428"
       transform="matrix(0.581870,0.000000,0.000000,0.581870,104.4958,7.705842)" />
    <path
       style="fill:#23498c;fill-opacity:1.0000000;fill-rule:evenodd;stroke:none;stroke-width:1.0000000pt;stroke-linecap:butt;stroke-linejoin:miter;stroke-opacity:1.0000000;"
       d="M 495.22670,487.80418 C 458.02683,487.80418 427.82044,518.01054 427.82045,555.21043 C 427.82045,555.29476 427.82014,555.37617 427.82045,555.46043 C 440.64179,534.28261 465.85601,519.86668 494.85170,519.86668 C 524.38907,519.86667 549.95336,534.85092 562.53920,556.67918 C 562.54990,556.18521 562.60170,555.70695 562.60170,555.21043 C 562.60170,518.01056 532.42656,487.80417 495.22670,487.80418 z "
       id="path3431"
       transform="matrix(0.581870,0.000000,0.000000,0.581870,104.4958,7.705842)" />
    <path
       style="fill:#23498c;fill-opacity:1.0000000;fill-rule:evenodd;stroke:none;stroke-width:1.0000000pt;stroke-linecap:butt;stroke-linejoin:miter;stroke-opacity:1.0000000;"
       d="M 88.250000,573.71875 C 108.12891,696.57413 219.18161,790.71873 353.09375,790.71875 C 487.00590,790.71875 598.08984,696.57414 617.96875,573.71875 L 88.250000,573.71875 z M 173.65625,633.40625 L 532.53125,633.40625 C 498.07411,691.87415 430.67485,731.68748 353.09375,731.68750 C 275.51157,731.68748 208.10638,691.87547 173.65625,633.40625 z "
       id="path3432"
       transform="matrix(0.581870,0.000000,0.000000,0.581870,104.4958,7.705842)" />
    <path
       style="fill:#23498c;fill-opacity:1.0000000;fill-rule:evenodd;stroke:none;stroke-width:1.0000000pt;stroke-linecap:butt;stroke-linejoin:miter;stroke-opacity:1.0000000;"
       d="M 354.25000,141.03125 C 161.83603,141.03125 2.7933943,284.32932 -22.187500,469.93750 L 41.750000,469.93750 C 66.202025,319.40985 196.84944,204.34375 354.25000,204.34375 C 511.65057,204.34376 642.29798,319.40986 666.75000,469.93750 L 730.65625,469.93750 C 705.67970,284.32932 546.66398,141.03125 354.25000,141.03125 z M -25.312500,504.87500 C -25.536875,510.23135 -25.718750,515.58881 -25.718750,521.00000 C -25.718750,730.73829 144.51171,900.96875 354.25000,900.96875 C 546.09358,900.96875 704.77409,758.52558 730.46875,573.71875 L 666.43750,573.71875 C 641.29511,723.42833 511.06936,837.65625 354.25000,837.65625 C 179.45623,837.65623 37.593750,695.79378 37.593750,521.00000 C 37.593750,515.59008 37.731444,510.21860 38.000000,504.87500 L -25.312500,504.87500 z "
       id="path3443"
       transform="matrix(0.581870,0.000000,0.000000,0.581870,104.4958,7.705842)" />
    <path
       style="fill:#23498c;fill-opacity:1.0000000;fill-rule:evenodd;stroke:none;stroke-width:1.0000000pt;stroke-linecap:butt;stroke-linejoin:miter;stroke-opacity:1.0000000;"
       d="M 337.50867,127.82952 L 330.11919,143.65666 L 382.10350,143.59944 L 374.48012,127.83747 L 337.50867,127.82952 z "
       id="path3452"
       sodipodi:nodetypes="ccccc"
       transform="matrix(0.581870,0.000000,0.000000,0.581870,104.4958,7.705842)" />
    <g
       id="g14081"
       transform="matrix(0.581870,0.000000,0.000000,0.581870,107.4408,5.986311)"
       style="fill:#23498c;fill-opacity:1.0000000;">
      <path
         style="font-size:75.000000;font-style:normal;font-variant:normal;font-weight:normal;font-stretch:condensed;stroke:none;stroke-width:1.0000000pt;stroke-linecap:butt;stroke-linejoin:miter;stroke-opacity:1.0000000;font-family:Impact;text-anchor:start;writing-mode:lr"
         d="M 781.28375,718.44997 L 726.69221,695.31961 L 732.70697,681.12379 L 787.29850,704.25416 L 781.28375,718.44997"
         id="text7397" />
      <path
         style="font-size:75.000000;font-style:normal;font-variant:normal;font-weight:normal;font-stretch:condensed;stroke:none;stroke-width:1.0000000pt;stroke-linecap:butt;stroke-linejoin:miter;stroke-opacity:1.0000000;font-family:Impact;text-anchor:start;writing-mode:lr"
         d="M 755.27604,760.45336 L 748.58352,756.73972 L 746.64675,760.23007 L 739.92222,756.49867 L 741.85899,753.00832 L 719.12366,740.39264 C 716.32711,738.84083 714.69173,738.11486 714.21751,738.21471 C 713.73146,738.33588 712.90207,739.45318 711.72934,741.56663 L 704.87672,737.76416 L 707.77300,732.54464 C 709.40772,729.59863 710.69193,727.56104 711.62564,726.43184 C 712.58072,725.31446 713.76241,724.51829 715.17072,724.04333 C 716.60038,723.58019 717.94607,723.54513 719.20781,723.93813 C 720.49088,724.34297 723.24585,725.71811 727.47270,728.06357 L 749.05526,740.03958 L 750.60112,737.25370 L 757.32566,740.98510 L 755.77979,743.77098 L 762.47230,747.48461 L 755.27604,760.45336"
         id="path14013" />
      <path
         style="font-size:75.000000;font-style:normal;font-variant:normal;font-weight:normal;font-stretch:condensed;stroke:none;stroke-width:1.0000000pt;stroke-linecap:butt;stroke-linejoin:miter;stroke-opacity:1.0000000;font-family:Impact;text-anchor:start;writing-mode:lr"
         d="M 742.43547,789.10819 L 731.37551,781.66720 C 731.63912,783.37464 731.60517,784.99961 731.27366,786.54211 C 730.92846,788.10478 730.28571,789.58498 729.34539,790.98271 C 727.90079,793.12983 726.12733,794.58494 724.02503,795.34804 C 721.90905,796.13129 720.02295,796.20119 718.36672,795.55775 C 716.71708,794.94808 713.99830,793.36904 710.21038,790.82063 L 682.40855,772.11598 L 690.66722,759.84063 L 719.04635,778.93369 C 721.39607,780.51452 722.98694,781.40827 723.81895,781.61497 C 724.63730,781.84184 725.31904,781.55017 725.86419,780.73996 C 726.36842,779.99044 726.36477,779.25235 725.85323,778.52570 C 725.34166,777.79897 724.06295,776.74740 722.01707,775.37099 L 693.24294,756.01219 L 701.50161,743.73684 L 750.69414,776.83284 L 742.43547,789.10819"
         id="path14012" />
      <path
         id="path14011"
         style="font-size:75.000000;font-style:normal;font-variant:normal;font-weight:normal;font-stretch:condensed;stroke:none;stroke-width:1.0000000pt;stroke-linecap:butt;stroke-linejoin:miter;stroke-opacity:1.0000000;font-family:Impact;text-anchor:start;writing-mode:lr"
         d="M 679.78530,825.09337 L 670.65250,817.46145 C 667.29914,814.65913 664.97653,812.43187 663.68466,810.77965 C 662.41154,809.14303 661.55303,807.20066 661.10909,804.95256 C 660.68393,802.72005 660.87146,800.45873 661.67169,798.16856 C 662.47503,795.91274 663.81600,793.66081 665.69462,791.41275 C 667.79242,788.90239 669.84093,787.00309 671.84015,785.71485 C 673.85810,784.44224 675.82677,783.78069 677.74613,783.73019 C 679.66858,783.71407 681.58885,784.15746 683.50691,785.06035 C 685.44370,785.97889 687.99512,787.76103 691.16117,790.40677 L 700.71547,798.39093 C 704.18122,801.28713 706.57517,803.92398 707.89732,806.30151 C 709.21941,808.67898 709.65651,811.33503 709.20864,814.26968 C 708.76071,817.20424 707.26868,820.18900 704.73256,823.22393 C 702.60343,825.77170 700.39556,827.63327 698.10893,828.80865 C 695.82535,830.01831 693.65984,830.61083 691.61243,830.58618 C 689.56498,830.56144 687.74622,830.18697 686.15614,829.46275 C 684.55039,828.75716 682.42678,827.30072 679.78530,825.09337 M 692.08245,816.08889 C 693.99329,817.68568 695.27837,818.58458 695.93768,818.78559 C 696.61568,819.00216 697.23649,818.77326 697.80010,818.09888 C 698.36366,817.42442 698.48648,816.76346 698.16854,816.11600 C 697.86930,815.48412 696.76427,814.36978 694.85342,812.77299 L 678.02098,798.70677 C 676.26000,797.23516 675.01393,796.38476 674.28278,796.15559 C 673.57037,795.94204 672.94020,796.16310 672.39225,796.81882 C 671.82868,797.49322 671.70432,798.13698 672.01919,798.75012 C 672.31842,799.38193 673.27358,800.37103 674.88470,801.71740 L 692.08245,816.08889" />
      <path
         style="font-size:75.000000;font-style:normal;font-variant:normal;font-weight:normal;font-stretch:condensed;stroke:none;stroke-width:1.0000000pt;stroke-linecap:butt;stroke-linejoin:miter;stroke-opacity:1.0000000;font-family:Impact;text-anchor:start;writing-mode:lr"
         d="M 659.21253,869.73995 L 625.35262,834.88173 L 636.14895,824.39460 L 638.77184,827.46274 C 638.36765,825.57494 638.41925,823.80602 638.92664,822.15595 C 639.43355,820.54037 640.38748,819.05216 641.78845,817.69131 C 643.38209,816.14333 644.97642,815.13922 646.57150,814.67897 C 648.16659,814.21871 649.66884,814.20600 651.07826,814.64084 C 652.47018,815.09270 653.71224,815.75818 654.80444,816.63732 C 655.91364,817.53394 657.92267,819.47956 660.83152,822.47417 L 683.66845,845.98443 L 673.05600,856.29294 L 650.01494,832.57255 C 647.37827,829.85812 645.73447,828.32354 645.08355,827.96880 C 644.41512,827.63103 643.71314,827.81938 642.97762,828.53385 C 642.18958,829.29931 641.98066,830.01278 642.35087,830.67425 C 642.70360,831.35270 644.26633,833.11918 647.03907,835.97372 L 669.82499,859.43143 L 659.21253,869.73995"
         id="path14009" />
      <path
         id="path14008"
         style="font-size:75.000000;font-style:normal;font-variant:normal;font-weight:normal;font-stretch:condensed;stroke:none;stroke-width:1.0000000pt;stroke-linecap:butt;stroke-linejoin:miter;stroke-opacity:1.0000000;font-family:Impact;text-anchor:start;writing-mode:lr"
         d="M 622.79453,899.38041 L 599.59020,870.01512 C 596.45696,866.04992 594.52444,863.40740 593.79265,862.08758 C 593.05687,860.80200 592.73742,859.07856 592.83425,856.91725 C 592.91601,854.73674 593.68807,852.52418 595.15043,850.27955 C 596.57856,848.03088 598.79630,845.71833 601.80368,843.34189 C 605.50070,840.42055 608.96929,838.70651 612.20948,838.19980 C 615.43456,837.67392 618.53850,839.21963 621.52134,842.83693 L 610.25793,851.73723 C 608.92593,850.05154 607.64695,849.69306 606.42099,850.66182 C 605.53985,851.35808 605.15996,852.07834 605.28129,852.82261 C 605.40266,853.56684 606.11422,854.76264 607.41594,856.41003 L 609.68642,859.28334 C 609.97110,857.59591 610.48730,856.08340 611.23502,854.74576 C 611.96362,853.42322 612.93131,852.28517 614.13809,851.33158 C 616.22604,849.68169 618.28303,848.74081 620.30908,848.50897 C 622.31597,848.29224 624.10578,848.66713 625.67852,849.63363 C 627.26638,850.61926 629.05933,852.37634 631.05736,854.90486 L 642.00109,868.75425 C 644.86187,872.37460 646.26915,875.49438 646.22294,878.11360 C 646.17668,880.73275 644.82226,883.09433 642.15968,885.19835 C 640.70385,886.34869 639.14751,887.09620 637.49064,887.44090 C 635.81461,887.80063 634.03806,887.75755 632.16099,887.31165 L 633.59820,890.84340 L 622.79453,899.38041 M 626.43937,880.07089 C 627.81679,881.81400 628.80006,882.84176 629.38920,883.15418 C 629.95916,883.48166 630.58893,883.37297 631.27855,882.82809 C 631.94897,882.29827 632.20838,881.64210 632.05676,880.85959 C 631.90110,880.11128 631.18755,878.93263 629.91609,877.32360 L 619.78973,864.50861 C 618.44258,862.80376 617.45931,861.77599 616.83991,861.42532 C 616.23565,861.09376 615.59830,861.19288 614.92786,861.72268 C 614.16165,862.32812 613.90579,863.02815 614.16028,863.82279 C 614.41480,864.61738 615.39726,866.09696 617.10769,868.26156 L 626.43937,880.07089" />
      <path
         style="font-size:75.000000;font-style:normal;font-variant:normal;font-weight:normal;font-stretch:condensed;stroke:none;stroke-width:1.0000000pt;stroke-linecap:butt;stroke-linejoin:miter;stroke-opacity:1.0000000;font-family:Impact;text-anchor:start;writing-mode:lr"
         d="M 604.05740,924.80711 L 596.93004,913.54249 C 596.48379,915.21154 595.79838,916.68526 594.87382,917.96369 C 593.92860,919.25506 592.74422,920.35113 591.32067,921.25189 C 589.13376,922.63554 586.92451,923.25333 584.69290,923.10529 C 582.44066,922.97018 580.68608,922.27468 579.42916,921.01878 C 578.16468,919.79646 576.31190,917.25631 573.87084,913.39834 L 555.95455,885.08204 L 568.45704,877.17146 L 586.74537,906.07574 C 588.25960,908.46892 589.35589,909.92761 590.03424,910.45184 C 590.69195,910.98904 591.43344,910.99658 592.25868,910.47447 C 593.02204,909.99144 593.31590,909.31437 593.14029,908.44324 C 592.96466,907.57204 592.21763,906.09460 590.89920,904.01088 L 572.35633,874.70430 L 584.85882,866.79372 L 616.55989,916.89653 L 604.05740,924.80711"
         id="path14006" />
      <path
         style="font-size:75.000000;font-style:normal;font-variant:normal;font-weight:normal;font-stretch:condensed;stroke:none;stroke-width:1.0000000pt;stroke-linecap:butt;stroke-linejoin:miter;stroke-opacity:1.0000000;font-family:Impact;text-anchor:start;writing-mode:lr"
         d="M 559.29755,945.45644 L 555.76804,938.66502 L 552.22611,940.50577 L 548.67970,933.68186 L 552.22163,931.84112 L 540.23143,908.76981 C 538.75658,905.93190 537.79391,904.42367 537.34340,904.24510 C 536.87126,904.07775 535.56284,904.55138 533.41818,905.66598 L 529.80422,898.71210 L 535.10088,895.95941 C 538.09041,894.40574 540.28615,893.41593 541.68811,892.98999 C 543.10135,892.58569 544.52618,892.57433 545.96262,892.95591 C 547.41032,893.35912 548.55166,894.07289 549.38665,895.09720 C 550.23290,896.14316 551.77060,898.81081 553.99977,903.10013 L 565.38203,925.00163 L 568.20908,923.53240 L 571.75549,930.35631 L 568.92844,931.82553 L 572.45795,938.61695 L 559.29755,945.45644"
         id="path14005" />
      <path
         style="font-size:75.000000;font-style:normal;font-variant:normal;font-weight:normal;font-stretch:condensed;stroke:none;stroke-width:1.0000000pt;stroke-linecap:butt;stroke-linejoin:miter;stroke-opacity:1.0000000;font-family:Impact;text-anchor:start;writing-mode:lr"
         d="M 478.84959,970.85760 L 468.23524,923.06967 L 483.39532,917.71889 C 486.19870,923.02074 489.75433,930.05060 494.06226,938.80850 C 493.01675,934.67261 492.10463,930.43789 491.32588,926.10432 L 489.36957,915.61027 L 504.52966,910.25950 L 526.60904,954.00084 L 514.59148,958.24246 C 514.07685,957.07776 509.98018,948.69839 502.30145,933.10433 C 502.74838,934.81066 504.79608,943.91321 508.44457,960.41202 L 496.87594,964.49518 L 484.79310,939.28393 C 487.05344,947.08163 489.07812,956.19230 490.86716,966.61600 L 478.84959,970.85760"
         id="path14004" />
      <path
         style="font-size:75.000000;font-style:normal;font-variant:normal;font-weight:normal;font-stretch:condensed;stroke:none;stroke-width:1.0000000pt;stroke-linecap:butt;stroke-linejoin:miter;stroke-opacity:1.0000000;font-family:Impact;text-anchor:start;writing-mode:lr"
         d="M 455.59740,987.30017 L 452.64381,974.30143 C 451.66550,975.72542 450.52703,976.88541 449.22843,977.78141 C 447.90603,978.68271 446.42347,979.32002 444.78076,979.69332 C 442.25722,980.26668 439.96852,980.11074 437.91464,979.22551 C 435.83701,978.34558 434.41569,977.10376 433.65067,975.50005 C 432.86731,973.92546 431.96983,970.91221 430.95822,966.46032 L 423.53367,933.78491 L 437.96084,930.50674 L 445.53957,963.86065 C 446.16708,966.62225 446.71293,968.36343 447.17712,969.08419 C 447.61753,969.81029 448.31387,970.06517 449.26615,969.84882 C 450.14702,969.64863 450.65024,969.10867 450.77580,968.22894 C 450.90138,967.34914 450.69099,965.70698 450.14461,963.30249 L 442.46040,929.48435 L 456.88757,926.20619 L 470.02458,984.02200 L 455.59740,987.30017"
         id="path14003" />
      <path
         id="path14002"
         style="font-size:75.000000;font-style:normal;font-variant:normal;font-weight:normal;font-stretch:condensed;stroke:none;stroke-width:1.0000000pt;stroke-linecap:butt;stroke-linejoin:miter;stroke-opacity:1.0000000;font-family:Impact;text-anchor:start;writing-mode:lr"
         d="M 406.12195,966.30057 L 419.89632,964.59637 L 420.29653,967.83098 C 420.75817,971.56226 420.68938,974.48589 420.09017,976.60188 C 419.46972,978.74502 417.95916,980.75232 415.55848,982.62381 C 413.15780,984.49519 409.88586,985.68721 405.74263,986.19987 C 400.77564,986.81436 396.92280,986.39313 394.18409,984.93621 C 391.44844,983.50342 389.66730,981.53437 388.84071,979.02906 C 388.01716,976.54789 387.11224,971.32160 386.12596,963.35019 L 383.13123,939.14510 L 397.41441,937.37794 L 397.94502,941.66654 C 398.62868,939.83534 399.63131,938.39518 400.95290,937.34606 C 402.25329,936.32416 403.88477,935.69181 405.84733,935.44899 C 408.41565,935.13123 410.86644,935.55372 413.19971,936.71645 C 415.51175,937.90640 416.96904,940.93643 417.57158,945.80653 L 418.06171,949.76802 C 418.50837,953.37818 418.24326,955.90790 417.26636,957.35719 C 416.28946,958.80644 413.65560,960.68213 409.36477,962.98424 C 404.77698,965.47065 402.35394,967.06194 402.09565,967.75813 C 401.83740,968.45426 401.83266,969.80785 402.08146,971.81892 C 402.39324,974.33873 402.78942,975.95023 403.27001,976.65341 C 403.72939,977.38375 404.39520,977.69497 405.26744,977.58709 C 406.26085,977.46414 406.83823,977.06061 406.99957,976.37648 C 407.16394,975.71649 407.07974,974.04180 406.74698,971.35239 L 406.12195,966.30057 M 400.65155,960.26153 C 402.78897,958.25046 403.97955,956.63944 404.22332,955.42849 C 404.44288,954.22049 404.41776,952.52619 404.14796,950.34557 C 403.83920,947.84994 403.48237,946.25817 403.07744,945.57027 C 402.64831,944.88535 401.94915,944.60285 400.97997,944.72277 C 400.05926,944.83668 399.50012,945.18876 399.30253,945.77902 C 399.08375,946.39648 399.12423,947.91668 399.42398,950.33963 L 400.65155,960.26153" />
      <path
         style="font-size:75.000000;font-style:normal;font-variant:normal;font-weight:normal;font-stretch:condensed;stroke:none;stroke-width:1.0000000pt;stroke-linecap:butt;stroke-linejoin:miter;stroke-opacity:1.0000000;font-family:Impact;text-anchor:start;writing-mode:lr"
         d="M 359.48876,995.25170 L 359.20321,987.60321 L 355.21428,987.75214 L 354.92735,980.06707 L 358.91628,979.91814 L 357.94620,953.93527 C 357.82689,950.73925 357.60181,948.96418 357.27096,948.61008 C 356.91576,948.25687 355.53050,948.12535 353.11517,948.21553 L 352.82278,940.38407 L 358.78786,940.16136 C 362.15467,940.03567 364.56279,940.08014 366.01222,940.29476 C 367.46259,940.53377 368.75537,941.13293 369.89058,942.09222 C 371.02671,943.07591 371.75309,944.20927 372.06973,945.49229 C 372.38729,946.79970 372.63624,949.86873 372.81659,954.69936 L 373.73749,979.36478 L 376.92131,979.24592 L 377.20824,986.93099 L 374.02441,987.04986 L 374.30998,994.69833 L 359.48876,995.25170"
         id="path14000" />
      <path
         style="font-size:75.000000;font-style:normal;font-variant:normal;font-weight:normal;font-stretch:condensed;stroke:none;stroke-width:1.0000000pt;stroke-linecap:butt;stroke-linejoin:miter;stroke-opacity:1.0000000;font-family:Impact;text-anchor:start;writing-mode:lr"
         d="M 307.89721,997.80333 L 312.10260,938.66312 L 327.48125,939.75667 L 323.27586,998.89689 L 307.89721,997.80333"
         id="path13999" />
      <path
         style="font-size:75.000000;font-style:normal;font-variant:normal;font-weight:normal;font-stretch:condensed;stroke:none;stroke-width:1.0000000pt;stroke-linecap:butt;stroke-linejoin:miter;stroke-opacity:1.0000000;font-family:Impact;text-anchor:start;writing-mode:lr"
         d="M 296.67035,977.43019 L 297.35512,987.59136 L 296.22766,996.60314 L 285.10829,995.21198 L 286.23577,986.20020 L 289.14844,976.48911 L 296.67035,977.43019"
         id="path13998" />
      <path
         id="path13997"
         style="font-size:75.000000;font-style:normal;font-variant:normal;font-weight:normal;font-stretch:condensed;stroke:none;stroke-width:1.0000000pt;stroke-linecap:butt;stroke-linejoin:miter;stroke-opacity:1.0000000;font-family:Impact;text-anchor:start;writing-mode:lr"
         d="M 239.10320,986.82291 L 250.88594,928.71596 L 265.38575,931.65619 L 264.68708,935.10170 C 266.36599,933.94748 268.04387,933.16672 269.72074,932.75943 C 271.39765,932.35213 273.07354,932.31830 274.74842,932.65793 C 276.99757,933.11401 278.82877,934.09565 280.24199,935.60285 C 281.65036,937.13398 282.43614,938.72569 282.59931,940.37800 C 282.73855,942.02544 282.45157,944.60779 281.73834,948.12509 L 277.21884,970.41318 C 276.47651,974.07399 275.72277,976.62398 274.95764,978.06317 C 274.16859,979.49742 272.82016,980.61900 270.91236,981.42792 C 268.99975,982.26067 266.88296,982.44175 264.56201,981.97117 C 262.76750,981.60723 261.19400,980.95187 259.84150,980.00507 C 258.46512,979.05333 257.29778,977.80773 256.33946,976.26826 L 253.60302,989.76314 L 239.10320,986.82291 M 258.15892,967.29560 C 257.80476,969.04224 257.72254,970.24621 257.91227,970.90749 C 258.07812,971.56386 258.60369,971.98182 259.48897,972.16137 C 260.35037,972.33600 260.99238,972.17971 261.41500,971.69249 C 261.80888,971.22429 262.19504,970.05705 262.57346,968.19076 L 267.30402,944.86185 C 267.69704,942.92375 267.81305,941.61454 267.65206,940.93422 C 267.48624,940.27781 266.99657,939.86713 266.18303,939.70217 C 265.24990,939.51295 264.55987,939.72178 264.11294,940.32867 C 263.66120,940.95947 263.16605,942.60283 262.62748,945.25874 L 258.15892,967.29560" />
      <path
         id="path13995"
         style="font-size:75.000000;font-style:normal;font-variant:normal;font-weight:normal;font-stretch:condensed;stroke:none;stroke-width:1.0000000pt;stroke-linecap:butt;stroke-linejoin:miter;stroke-opacity:1.0000000;font-family:Impact;text-anchor:start;writing-mode:lr"
         d="M 172.18560,965.39226 L 192.42924,909.66575 L 206.33506,914.71729 L 205.13469,918.02163 C 206.96579,917.12831 208.74066,916.60418 210.45932,916.44927 C 212.17801,916.29437 213.84049,916.50867 215.44675,917.09216 C 217.60378,917.87575 219.26971,919.11731 220.44459,920.81689 C 221.61113,922.53940 222.15295,924.22979 222.07006,925.88806 C 221.96423,927.53798 221.29862,930.04955 220.07324,933.42274 L 212.30838,954.79777 C 211.03301,958.30861 209.91057,960.71914 208.94107,962.02941 C 207.94865,963.33125 206.44923,964.24116 204.44282,964.75914 C 202.42810,965.29998 200.30780,965.16614 198.08193,964.35760 C 196.36095,963.73237 194.90162,962.85158 193.70395,961.71523 C 192.48340,960.57047 191.51303,959.16597 190.79284,957.50175 L 186.09140,970.44380 L 172.18560,965.39226 M 193.91879,948.89667 C 193.31030,950.57177 193.05100,951.75035 193.14088,952.43242 C 193.20788,953.10608 193.66588,953.59715 194.51489,953.90560 C 195.34100,954.20566 195.99906,954.14601 196.48906,953.72663 C 196.94785,953.32179 197.50232,952.22446 198.15249,950.43464 L 206.27996,928.06142 C 206.95519,926.20272 207.26347,924.92505 207.20483,924.22840 C 207.13787,923.55470 206.71430,923.07614 205.93408,922.79272 C 205.03918,922.46762 204.32585,922.57215 203.79412,923.10629 C 203.25409,923.66338 202.52143,925.21548 201.59612,927.76259 L 193.91879,948.89667" />
      <path
         id="path13993"
         style="font-size:75.000000;font-style:normal;font-variant:normal;font-weight:normal;font-stretch:condensed;stroke:none;stroke-width:1.0000000pt;stroke-linecap:butt;stroke-linejoin:miter;stroke-opacity:1.0000000;font-family:Impact;text-anchor:start;writing-mode:lr"
         d="M 140.54697,920.15267 L 145.71130,909.42963 C 147.60758,905.49234 149.19859,902.69521 150.48433,901.03823 C 151.75956,899.40325 153.43269,898.09542 155.50375,897.11471 C 157.56427,896.15603 159.80272,895.78436 162.21909,895.99968 C 164.60293,896.22643 167.11459,896.97541 169.75409,898.24662 C 172.70157,899.66615 175.04451,901.18745 176.78291,902.81053 C 178.51074,904.45561 179.63403,906.20246 180.15281,908.05108 C 180.63900,909.91111 180.67912,911.88148 180.27317,913.96220 C 179.85664,916.06492 178.75322,918.97494 176.96291,922.69227 L 171.56023,933.91023 C 169.60044,937.97945 167.62976,940.94600 165.64818,942.80988 C 163.66664,944.67369 161.19837,945.74763 158.24337,946.03169 C 155.28843,946.31566 152.02927,945.59961 148.46589,943.88349 C 145.47447,942.44275 143.12911,940.75769 141.42978,938.82831 C 139.69796,936.91028 138.59342,934.95569 138.11616,932.96451 C 137.63900,930.97329 137.55692,929.11820 137.86989,927.39921 C 138.16097,925.66960 139.05333,923.25409 140.54697,920.15267 M 152.28751,929.87174 C 151.20702,932.11531 150.65001,933.58132 150.61650,934.26976 C 150.57246,934.98015 150.94636,935.52605 151.73818,935.90744 C 152.53006,936.28878 153.20099,936.24608 153.75093,935.77934 C 154.29034,935.33454 155.10030,933.99036 156.18081,931.74678 L 165.69907,911.98338 C 166.69488,909.91576 167.21440,908.49945 167.25765,907.73444 C 167.29033,906.99143 166.92173,906.43454 166.15185,906.06377 C 165.36003,905.68240 164.70540,905.71940 164.18799,906.17477 C 163.64863,906.61954 162.92342,907.78776 162.01235,909.67941 L 152.28751,929.87174" />
      <path
         style="font-size:75.000000;font-style:normal;font-variant:normal;font-weight:normal;font-stretch:condensed;stroke:none;stroke-width:1.0000000pt;stroke-linecap:butt;stroke-linejoin:miter;stroke-opacity:1.0000000;font-family:Impact;text-anchor:start;writing-mode:lr"
         d="M 64.210552,891.40728 L 96.814321,854.89226 L 110.00867,864.07747 C 107.34051,869.44861 103.70847,876.43931 99.112553,885.04958 C 101.86025,881.78632 104.76604,878.57366 107.82995,875.41159 L 115.20827,867.69715 L 128.40263,876.88235 L 105.77728,920.34380 L 95.317973,913.06259 C 95.963191,911.96484 100.37508,903.74707 108.55366,888.40926 C 107.42915,889.76823 101.23398,896.74456 89.968095,909.33830 L 79.899512,902.32909 L 93.315523,877.80130 C 88.303912,884.18855 82.088699,891.15093 74.669856,898.68849 L 64.210552,891.40728"
         id="path13991" />
      <path
         id="path13990"
         style="font-size:75.000000;font-style:normal;font-variant:normal;font-weight:normal;font-stretch:condensed;stroke:none;stroke-width:1.0000000pt;stroke-linecap:butt;stroke-linejoin:miter;stroke-opacity:1.0000000;font-family:Impact;text-anchor:start;writing-mode:lr"
         d="M 58.048181,861.03398 L 68.448721,870.22454 L 66.290514,872.66688 C 63.800930,875.48423 61.565070,877.36925 59.582915,878.32192 C 57.566373,879.27665 55.061992,879.47457 52.069784,878.91566 C 49.077642,878.35670 46.017361,876.69501 42.888918,873.93059 C 39.138560,870.61648 36.902096,867.45103 36.179537,864.43423 C 35.440922,861.43571 35.736303,858.79709 37.065695,856.51836 C 38.379021,854.25792 41.695009,850.11823 47.013681,844.09927 L 63.163845,825.82286 L 73.948578,835.35291 L 71.087134,838.59107 C 72.911862,837.89031 74.654910,837.68753 76.316269,837.98272 C 77.943194,838.28007 79.497583,839.08346 80.979439,840.39293 C 82.918689,842.10656 84.225515,844.22247 84.899928,846.74066 C 85.539879,849.26098 84.235147,852.35975 80.985709,856.03699 L 78.342510,859.02818 C 75.933745,861.75408 73.862939,863.23108 72.130094,863.45918 C 70.397278,863.68727 67.247474,862.95646 62.680654,861.26676 C 57.779070,859.47664 54.981958,858.71539 54.289304,858.98303 C 53.596720,859.25065 52.579511,860.14369 51.237673,861.66216 C 49.556410,863.56480 48.611549,864.92902 48.403065,865.75484 C 48.160199,866.58274 48.368053,867.28770 49.026627,867.86971 C 49.776747,868.53250 50.461509,868.69777 51.080905,868.36549 C 51.684217,868.05147 52.883085,866.87912 54.677502,864.84843 L 58.048181,861.03398 M 58.949013,852.93559 C 61.871434,853.20479 63.866974,853.02966 64.935655,852.41018 C 65.986078,851.77453 67.238764,850.63344 68.693707,848.98692 C 70.358855,847.10257 71.315009,845.78088 71.562145,845.02188 C 71.791030,844.24672 71.539565,843.53581 70.807760,842.88915 C 70.112580,842.27483 69.478449,842.08915 68.905354,842.33209 C 68.297855,842.57717 67.185771,843.61445 65.569117,845.44391 L 58.949013,852.93559" />
      <path
         style="font-size:75.000000;font-style:normal;font-variant:normal;font-weight:normal;font-stretch:condensed;stroke:none;stroke-width:1.0000000pt;stroke-linecap:butt;stroke-linejoin:miter;stroke-opacity:1.0000000;font-family:Impact;text-anchor:start;writing-mode:lr"
         d="M 12.043954,819.93549 L 20.969705,829.53822 L 19.038429,831.33335 C 17.393312,832.86251 16.447562,833.92490 16.201182,834.52054 C 15.920387,835.11489 16.129024,835.78758 16.827083,836.53866 C 17.392254,837.14663 18.021744,837.41148 18.715563,837.33320 C 19.391575,837.27151 20.131908,836.86669 20.936562,836.11873 C 22.027411,835.10481 22.765629,834.28531 23.151198,833.66024 C 23.502348,833.03389 23.632840,832.06263 23.542701,830.74646 C 23.436003,829.41238 22.866787,827.02494 21.835057,823.58410 C 20.447579,819.00738 19.976253,815.59566 20.421077,813.34890 C 20.865974,811.10215 22.384861,808.77373 24.977741,806.36359 C 27.874689,803.67093 30.414299,802.01032 32.596593,801.38177 C 34.761065,800.76988 37.068389,800.97510 39.518598,801.99746 C 41.934339,803.01858 44.297391,804.77194 46.607763,807.25755 C 49.167482,810.01142 50.932345,812.77077 51.902359,815.53563 C 52.855766,818.28262 52.940037,820.70419 52.155176,822.80031 C 51.370325,824.89645 49.493681,827.32409 46.525227,830.08326 L 44.808542,831.67893 L 35.882791,822.07620 L 38.135944,819.98189 C 40.049362,818.20340 41.184130,816.93197 41.540258,816.16761 C 41.879808,815.38538 41.717140,814.63662 41.052264,813.92132 C 40.337557,813.15240 39.651155,812.79046 38.993038,812.83550 C 38.317093,812.89719 37.362169,813.50147 36.128278,814.64835 C 34.429489,816.22739 33.548338,817.41307 33.484815,818.20539 C 33.437962,819.01559 34.121356,822.29688 35.534992,828.04924 C 36.705427,832.89440 36.890526,836.33886 36.090278,838.38262 C 35.272202,840.44297 33.861755,842.40395 31.858933,844.26558 C 29.015689,846.90837 26.574429,848.47756 24.535127,848.97315 C 22.478024,849.48530 20.251788,849.18803 17.856435,848.08132 C 15.444530,846.95668 13.133239,845.20521 10.922533,842.82691 C 8.7285379,840.46644 7.1709291,838.18107 6.2496976,835.97080 C 5.2940644,833.75923 4.9007503,831.75826 5.0697629,829.96786 C 5.2222620,828.15956 5.6356094,826.77540 6.3098015,825.81538 C 6.9674839,824.83745 8.1903970,823.51742 9.9785667,821.85528 L 12.043954,819.93549"
         id="path13988" />
      <path
         style="font-size:75.000000;font-style:normal;font-variant:normal;font-weight:normal;font-stretch:condensed;stroke:none;stroke-width:1.0000000pt;stroke-linecap:butt;stroke-linejoin:miter;stroke-opacity:1.0000000;font-family:Impact;text-anchor:start;writing-mode:lr"
         d="M 16.031871,790.75651 L 20.158948,787.41526 C 22.322116,785.66399 24.303668,784.48379 26.103616,783.87468 C 27.903579,783.26558 29.802045,783.20497 31.799030,783.69282 C 33.780648,784.16171 35.577960,785.06253 37.190955,786.39527 L 33.889295,789.06828 C 32.322416,788.45208 30.936743,788.50591 29.732266,789.22974 L 31.299198,791.16520 L 22.276559,798.46986 L 16.031871,790.75651"
         id="path13987" />
      <path
         style="font-size:75.000000;font-style:normal;font-variant:normal;font-weight:normal;font-stretch:condensed;stroke:none;stroke-width:1.0000000pt;stroke-linecap:butt;stroke-linejoin:miter;stroke-opacity:1.0000000;font-family:Impact;text-anchor:start;writing-mode:lr"
         d="M -49.187766,781.27642 L 0.27871776,748.59129 L 8.7780581,761.45441 L -40.688422,794.13953 L -49.187766,781.27642"
         id="path13986" />
      <path
         style="font-size:75.000000;font-style:normal;font-variant:normal;font-weight:normal;font-stretch:condensed;stroke:none;stroke-width:1.0000000pt;stroke-linecap:butt;stroke-linejoin:miter;stroke-opacity:1.0000000;font-family:Impact;text-anchor:start;writing-mode:lr"
         d="M -39.858091,759.98838 L -47.495603,766.72535 L -55.326696,771.32507 L -61.002138,761.66250 L -53.171050,757.06280 L -43.697364,753.45195 L -39.858091,759.98838"
         id="path13985" />
      <path
         id="path13984"
         style="font-size:75.000000;font-style:normal;font-variant:normal;font-weight:normal;font-stretch:condensed;stroke:none;stroke-width:1.0000000pt;stroke-linecap:butt;stroke-linejoin:miter;stroke-opacity:1.0000000;font-family:Impact;text-anchor:start;writing-mode:lr"
         d="M -82.018098,720.99259 L -28.848917,694.75735 L -22.302258,708.02501 L -25.454973,709.58066 C -23.514752,710.20233 -21.870544,711.05171 -20.522344,712.12881 C -19.174124,713.20594 -18.121916,714.51078 -17.365704,716.04333 C -16.350214,718.10137 -16.006164,720.15039 -16.333553,722.19041 C -16.682830,724.24124 -17.460986,725.83668 -18.668029,726.97676 C -19.885862,728.09494 -22.103979,729.44806 -25.322382,731.03611 L -45.716490,741.09916 C -49.066211,742.75202 -51.544318,743.71616 -53.150819,743.99159 C -54.768045,744.24509 -56.480239,743.86484 -58.287400,742.85084 C -60.116365,741.84760 -61.554816,740.28414 -62.602766,738.16046 C -63.412942,736.51840 -63.857386,734.87284 -63.936096,733.22375 C -64.025502,731.55275 -63.754577,729.86728 -63.123318,728.16733 L -75.471440,734.26026 L -82.018098,720.99259 M -54.913129,724.11618 C -56.511336,724.90481 -57.513910,725.57646 -57.920864,726.13116 C -58.338526,726.66396 -58.347526,727.33540 -57.947858,728.14547 C -57.558900,728.93365 -57.042449,729.34581 -56.398492,729.38196 C -55.787151,729.40702 -54.627639,728.99823 -52.919962,728.15559 L -31.573475,717.62261 C -29.800055,716.74756 -28.693554,716.03824 -28.253967,715.49462 C -27.836245,714.96184 -27.811040,714.32323 -28.178360,713.57883 C -28.599666,712.72499 -29.187057,712.30699 -29.940540,712.32484 C -30.715883,712.35352 -32.318669,712.96743 -34.748908,714.16656 L -54.913129,724.11618" />
      <path
         id="path13982"
         style="font-size:75.000000;font-style:normal;font-variant:normal;font-weight:normal;font-stretch:condensed;stroke:none;stroke-width:1.0000000pt;stroke-linecap:butt;stroke-linejoin:miter;stroke-opacity:1.0000000;font-family:Impact;text-anchor:start;writing-mode:lr"
         d="M -89.945218,670.15713 L -85.788972,669.08487 C -87.843496,668.36275 -89.521109,667.37783 -90.821819,666.13013 C -92.122426,664.88245 -93.061493,663.36411 -93.639029,661.57512 C -94.343949,659.39117 -94.358972,657.31801 -93.684097,655.35562 C -93.039845,653.37753 -92.014788,651.94351 -90.608917,651.05353 C -89.202946,650.16360 -86.664531,649.12614 -82.993671,647.94116 L -63.512299,641.65262 C -59.306997,640.29520 -56.227370,639.58331 -54.273404,639.51693 C -52.350143,639.43489 -50.602907,639.99968 -49.031688,641.21131 C -47.491186,642.40727 -46.368451,644.09721 -45.663484,646.28114 C -45.100998,648.02369 -44.986352,649.76967 -45.319552,651.51909 C -45.652736,653.26855 -46.422146,655.01769 -47.627787,656.76654 L -37.033265,653.34666 L -32.488421,667.42622 L -85.321624,684.48064 L -89.945218,670.15713 M -77.786667,661.80697 C -80.644361,662.72946 -82.341513,663.39274 -82.878130,663.79682 C -83.414661,664.20093 -83.529204,664.87926 -83.221762,665.83184 C -82.921729,666.76119 -82.378229,667.25276 -81.591268,667.30656 C -80.811724,667.33715 -79.086040,666.92121 -76.414218,666.05873 L -57.246497,659.87144 C -54.458448,658.97148 -52.760930,658.26960 -52.153933,657.76579 C -51.546909,657.26201 -51.393396,656.54544 -51.693403,655.61608 C -51.985877,654.70999 -52.479524,654.25363 -53.174342,654.24700 C -53.899864,654.22467 -55.494016,654.61100 -57.956794,655.40595 L -77.786667,661.80697" />
      <path
         style="font-size:75.000000;font-style:normal;font-variant:normal;font-weight:normal;font-stretch:condensed;stroke:none;stroke-width:1.0000000pt;stroke-linecap:butt;stroke-linejoin:miter;stroke-opacity:1.0000000;font-family:Impact;text-anchor:start;writing-mode:lr"
         d="M -102.33791,624.58254 L -95.993987,623.74512 C -100.92139,622.65927 -103.96680,620.15792 -105.13022,616.24104 L -88.451423,612.45979 C -87.852217,615.10270 -87.055136,616.96223 -86.060187,618.03840 C -85.065163,619.11458 -83.892418,619.64978 -82.541946,619.64400 C -81.215219,619.64364 -78.254223,619.12255 -73.658949,618.08074 L -54.944414,613.83797 L -51.673268,628.26673 L -99.066764,639.01132 L -102.33791,624.58254"
         id="path13980" />
      <path
         id="path13979"
         style="font-size:75.000000;font-style:normal;font-variant:normal;font-weight:normal;font-stretch:condensed;stroke:none;stroke-width:1.0000000pt;stroke-linecap:butt;stroke-linejoin:miter;stroke-opacity:1.0000000;font-family:Impact;text-anchor:start;writing-mode:lr"
         d="M -86.036712,568.32782 L -83.458840,587.30636 L -73.044225,585.89174 C -70.866939,585.59602 -69.485171,585.24818 -68.898912,584.84824 C -68.312628,584.44832 -68.080283,583.80081 -68.201875,582.90569 C -68.353021,581.79288 -68.864509,581.11090 -69.736332,580.85971 C -70.635614,580.58768 -72.282756,580.61430 -74.677770,580.93960 L -81.028146,581.80217 L -82.915956,567.90393 L -79.359744,567.42088 C -76.384121,567.01673 -74.071701,566.89974 -72.422473,567.06990 C -70.776505,567.21594 -68.952681,567.85518 -66.950996,568.98764 C -64.949294,570.12016 -63.344220,571.68842 -62.135762,573.69240 C -60.954776,575.67554 -60.147409,578.26376 -59.713661,581.45707 C -59.293050,584.55365 -59.369282,587.34813 -59.942357,589.84051 C -60.515425,592.33290 -61.485736,594.34952 -62.853294,595.89038 C -64.248318,597.41034 -65.842716,598.55083 -67.636494,599.31188 C -69.454443,600.07622 -72.153626,600.70156 -75.734043,601.18789 L -89.777445,603.09541 C -93.986802,603.66717 -97.378312,603.54885 -99.951983,602.74043 C -102.54976,601.93529 -104.66556,600.32554 -106.29938,597.91116 C -107.95730,595.50008 -109.01466,592.61320 -109.47146,589.25052 C -110.03003,585.13791 -109.70383,581.64425 -108.49287,578.76952 C -107.30929,575.87395 -105.49554,573.71812 -103.05164,572.30205 C -100.63513,570.86513 -97.092373,569.82955 -92.423376,569.19532 L -86.036712,568.32782 M -91.878644,584.08907 L -95.398567,584.56718 C -97.890293,584.90565 -99.480979,585.25723 -100.17063,585.62190 C -100.86020,585.98661 -101.14915,586.58022 -101.03746,587.40273 C -100.89941,588.41880 -100.49948,589.00507 -99.837669,589.16154 C -99.199970,589.32132 -97.526397,589.21719 -94.816945,588.84915 L -91.297022,588.37104 L -91.878644,584.08907" />
      <path
         style="font-size:75.000000;font-style:normal;font-variant:normal;font-weight:normal;font-stretch:condensed;stroke:none;stroke-width:1.0000000pt;stroke-linecap:butt;stroke-linejoin:miter;stroke-opacity:1.0000000;font-family:Impact;text-anchor:start;writing-mode:lr"
         d="M -119.09108,543.75969 L -111.44743,543.36554 L -111.65300,539.37914 L -103.97277,538.98310 L -103.76721,542.96950 L -77.800736,541.63051 C -74.606728,541.46582 -72.835041,541.21557 -72.485670,540.87973 C -72.137538,540.51954 -72.025710,539.13255 -72.150189,536.71874 L -64.323676,536.31516 L -64.016272,542.27648 C -63.842769,545.64116 -63.853025,548.04966 -64.047048,549.50201 C -64.265446,550.95562 -64.846183,552.25678 -65.789254,553.40550 C -66.756704,554.55548 -67.879629,555.29789 -69.158032,555.63272 C -70.460802,555.96881 -73.525976,556.26133 -78.353553,556.51026 L -103.00342,557.78136 L -102.83934,560.96318 L -110.51957,561.35921 L -110.68364,558.17740 L -118.32729,558.57156 L -119.09108,543.75969"
         id="path13977" />
      <path
         id="path13976"
         style="font-size:75.000000;font-style:normal;font-variant:normal;font-weight:normal;font-stretch:condensed;stroke:none;stroke-width:1.0000000pt;stroke-linecap:butt;stroke-linejoin:miter;stroke-opacity:1.0000000;font-family:Impact;text-anchor:start;writing-mode:lr"
         d="M -86.894524,494.90537 L -87.543798,514.04719 L -77.039587,514.40348 C -74.843575,514.47799 -73.422993,514.36738 -72.777845,514.07169 C -72.132678,513.77603 -71.794784,513.17678 -71.764171,512.27397 C -71.726093,511.15158 -72.115651,510.39332 -72.932843,509.99915 C -73.773593,509.57981 -75.401774,509.32916 -77.817384,509.24719 L -84.222393,509.02995 L -83.746921,495.01213 L -80.160115,495.13379 C -77.158901,495.23563 -74.859722,495.50904 -73.262573,495.95403 C -71.664579,496.37469 -69.974171,497.31143 -68.191350,498.76427 C -66.408523,500.21718 -65.089923,502.03293 -64.235554,504.21156 C -63.404757,506.36501 -63.043983,509.05212 -63.153229,512.27290 C -63.259165,515.39612 -63.804090,518.13801 -64.787998,520.49858 C -65.771905,522.85917 -67.067418,524.68397 -68.674541,525.97300 C -70.305230,527.23681 -72.068665,528.09304 -73.964856,528.54172 C -75.885427,528.98957 -78.651318,529.15225 -82.262534,529.02975 L -96.426752,528.54931 C -100.67232,528.40531 -103.99567,527.71852 -106.39681,526.48895 C -108.82227,525.25857 -110.63735,523.31604 -111.84204,520.66137 C -113.07104,518.00589 -113.62804,514.98234 -113.51305,511.59072 C -113.37230,507.44273 -112.46343,504.05364 -110.78644,501.42340 C -109.13292,498.76800 -106.98258,496.94776 -104.33541,495.96268 C -101.71173,494.95245 -98.045304,494.52718 -93.336132,494.68687 L -86.894524,494.90537 M -95.302918,509.46023 L -98.853121,509.33981 C -101.36629,509.25459 -102.99344,509.33375 -103.73458,509.57730 C -104.47565,509.82090 -104.86027,510.35748 -104.88845,511.18706 C -104.92317,512.21187 -104.62749,512.85704 -104.00140,513.12254 C -103.39964,513.38725 -101.73238,513.56593 -98.999610,513.65861 L -95.449407,513.77904 L -95.302918,509.46023" />
      <path
         style="font-size:75.000000;font-style:normal;font-variant:normal;font-weight:normal;font-stretch:condensed;stroke:none;stroke-width:1.0000000pt;stroke-linecap:butt;stroke-linejoin:miter;stroke-opacity:1.0000000;font-family:Impact;text-anchor:start;writing-mode:lr"
         d="M -108.85538,465.90989 L -104.46432,466.77322 C -106.08333,465.46597 -107.22331,463.99055 -107.88426,462.34693 C -108.56598,460.67586 -108.76867,458.83659 -108.49233,456.82914 C -108.14598,454.31384 -107.27037,452.33962 -105.86554,450.90648 C -104.46062,449.47342 -102.81956,448.65197 -100.94239,448.44214 C -99.089333,448.22906 -96.058649,448.41221 -91.850335,448.99157 L -58.111002,453.63682 L -60.128936,468.29348 L -93.469204,463.70318 C -96.782636,463.24700 -98.817145,463.07779 -99.572724,463.19553 C -100.32824,463.31334 -100.77427,463.86804 -100.91083,464.85963 C -101.05399,465.89966 -100.72064,466.61095 -99.910799,466.99351 C -99.125071,467.37280 -96.918285,467.81217 -93.290434,468.31164 L -60.748303,472.79206 L -62.766237,487.44871 L -110.90828,480.82050 L -108.85538,465.90989"
         id="path13974" />
      <path
         id="path13973"
         style="font-size:75.000000;font-style:normal;font-variant:normal;font-weight:normal;font-stretch:condensed;stroke:none;stroke-width:1.0000000pt;stroke-linecap:butt;stroke-linejoin:miter;stroke-opacity:1.0000000;font-family:Impact;text-anchor:start;writing-mode:lr"
         d="M -105.82192,397.56618 L -48.261838,411.78189 L -51.809175,426.14524 L -55.222251,425.30231 C -54.139656,427.02826 -53.430143,428.73749 -53.093722,430.43001 C -52.757303,432.12255 -52.793971,433.79838 -53.203728,435.45751 C -53.753978,437.68550 -54.811749,439.47378 -56.377046,440.82238 C -57.966045,442.16513 -59.589392,442.88327 -61.247095,442.97682 C -62.898934,443.04667 -65.466942,442.65134 -68.951132,441.79085 L -91.029461,436.33813 C -94.655815,435.44252 -97.171859,434.58223 -98.577600,433.75725 C -99.977411,432.90859 -101.04130,431.51419 -101.76927,429.57407 C -102.52086,427.62812 -102.61278,425.50560 -102.04502,423.20649 C -101.60595,421.42888 -100.88499,419.88432 -99.882153,418.57282 C -98.873374,417.23769 -97.579790,416.12375 -96.001391,415.23102 L -109.36926,411.92954 L -105.82192,397.56618 M -87.113170,417.42616 C -88.843379,416.99887 -90.042820,416.86610 -90.711499,417.02786 C -91.374255,417.16597 -91.813945,417.67349 -92.030571,418.55043 C -92.241261,419.40373 -92.112111,420.05174 -91.643099,420.49448 C -91.191865,420.90770 -90.041893,421.34260 -88.193178,421.79916 L -65.083817,427.50652 C -63.163955,427.98068 -61.860782,428.15165 -61.174293,428.01940 C -60.511496,427.88133 -60.080587,427.40936 -59.881567,426.60348 C -59.653270,425.67913 -59.832898,424.98092 -60.420457,424.50887 C -61.031711,424.03101 -62.652795,423.46720 -65.283713,422.81741 L -87.113170,417.42616" />
      <path
         style="font-size:75.000000;font-style:normal;font-variant:normal;font-weight:normal;font-stretch:condensed;stroke:none;stroke-width:1.0000000pt;stroke-linecap:butt;stroke-linejoin:miter;stroke-opacity:1.0000000;font-family:Impact;text-anchor:start;writing-mode:lr"
         d="M -89.217695,349.93265 L -33.884240,371.22722 L -39.421619,385.61597 L -94.755068,364.32140 L -89.217695,349.93265"
         id="path13971" />
      <path
         style="font-size:75.000000;font-style:normal;font-variant:normal;font-weight:normal;font-stretch:condensed;stroke:none;stroke-width:1.0000000pt;stroke-linecap:butt;stroke-linejoin:miter;stroke-opacity:1.0000000;font-family:Impact;text-anchor:start;writing-mode:lr"
         d="M -42.524658,280.45902 L -2.8704430,309.16260 L -10.659921,323.22612 C -16.275509,321.12052 -23.600624,318.22152 -32.635293,314.52911 C -29.108449,316.92911 -25.615790,319.49157 -22.157304,322.21647 L -13.729580,328.76825 L -21.519061,342.83178 L -67.064183,324.76395 L -60.889379,313.61564 C -59.731464,314.14537 -51.106037,317.69481 -35.013079,324.26399 C -36.479789,323.28417 -44.052424,317.83397 -57.730996,307.91335 L -51.786859,297.18149 L -26.017027,308.02205 C -32.882764,303.68905 -40.443567,298.21748 -48.699462,291.60733 L -42.524658,280.45902"
         id="path13970" />
      <path
         id="path13969"
         style="font-size:75.000000;font-style:normal;font-variant:normal;font-weight:normal;font-stretch:condensed;stroke:none;stroke-width:1.0000000pt;stroke-linecap:butt;stroke-linejoin:miter;stroke-opacity:1.0000000;font-family:Impact;text-anchor:start;writing-mode:lr"
         d="M -12.957493,271.22915 L -21.032971,282.51739 L -23.683768,280.62104 C -26.741592,278.43351 -28.845960,276.40275 -29.996882,274.52875 C -31.153393,272.62076 -31.607096,270.14987 -31.358004,267.11612 C -31.108848,264.08243 -29.769761,260.86788 -27.340764,257.47243 C -24.428736,253.40197 -21.509331,250.85266 -18.582549,249.82453 C -15.675578,248.78229 -13.020577,248.80552 -10.617533,249.89420 C -8.2343212,250.96878 -3.7763873,253.84275 2.7562884,258.51611 L 22.592603,272.70679 L 14.218825,284.41200 L 10.704283,281.89774 C 11.588482,283.64098 11.968953,285.35403 11.845696,287.03691 C 11.716769,288.68575 11.077011,290.31434 9.9264258,291.92268 C 8.4207039,294.02744 6.4499701,295.54437 4.0142280,296.47347 C 1.5728258,297.36853 -1.6434152,296.38847 -5.6345079,293.53328 L -8.8809940,291.21078 C -11.839547,289.09426 -13.521135,287.18585 -13.925754,285.48554 C -14.330340,283.78525 -13.926411,280.57710 -12.713965,275.86108 C -11.435960,270.80175 -10.965589,267.94131 -11.302849,267.27976 C -11.640085,266.61828 -12.632740,265.69802 -14.280815,264.51897 C -16.345841,263.04171 -17.799767,262.24172 -18.642608,262.11904 C -19.491059,261.96236 -20.170980,262.24142 -20.682377,262.95620 C -21.264753,263.77034 -21.358920,264.46844 -20.964878,265.05050 C -20.590641,265.61842 -19.301518,266.69073 -17.097508,268.26744 L -12.957493,271.22915 M -4.8094208,271.29470 C -4.7774999,274.22933 -4.3986332,276.19639 -3.6728242,277.19590 C -2.9327949,278.17560 -1.6692571,279.30466 0.11779288,280.58308 C 2.1629798,282.04620 3.5757452,282.86176 4.3560967,283.02975 C 5.1506462,283.17793 5.8320203,282.85489 6.4002181,282.06062 C 6.9400003,281.30611 7.0596730,280.65628 6.7592400,280.11113 C 6.4531460,279.53196 5.3072933,278.53212 3.3216821,277.11160 L -4.8094208,271.29470" />
      <path
         style="font-size:75.000000;font-style:normal;font-variant:normal;font-weight:normal;font-stretch:condensed;stroke:none;stroke-width:1.0000000pt;stroke-linecap:butt;stroke-linejoin:miter;stroke-opacity:1.0000000;font-family:Impact;text-anchor:start;writing-mode:lr"
         d="M 23.209797,221.25598 L 14.571346,231.11795 L 12.587932,229.38062 C 10.898375,227.90069 9.7447336,227.06868 9.1270060,226.88458 C 8.5070360,226.66611 7.8592277,226.94252 7.1835748,227.71381 C 6.6366539,228.33825 6.4376442,228.99155 6.5865477,229.67371 C 6.7171242,230.33985 7.1956147,231.03485 8.0220165,231.75871 C 9.1422957,232.74002 10.033062,233.39045 10.694320,233.71001 C 11.353332,233.99518 12.332849,234.02556 13.632878,233.80113 C 14.949014,233.55842 17.265647,232.74777 20.582776,231.36918 C 24.993387,229.52043 28.338935,228.70228 30.619428,228.91475 C 32.899914,229.12729 35.371615,230.39982 38.034538,232.73233 C 41.009645,235.33836 42.921530,237.69462 43.770203,239.80110 C 44.600477,241.89154 44.632551,244.20776 43.866427,246.74977 C 43.097990,249.25735 41.595770,251.78750 39.359762,254.34021 C 36.882430,257.16842 34.318258,259.20651 31.667234,260.45449 C 29.032286,261.68412 26.632079,262.01587 24.466609,261.44973 C 22.301143,260.88360 19.694119,259.26536 16.645534,256.59499 L 14.882498,255.05070 L 23.520949,245.18873 L 25.834930,247.21563 C 27.799977,248.93690 29.180902,249.93554 29.977707,250.21154 C 30.790591,250.46922 31.518766,250.23075 32.162230,249.49614 C 32.853945,248.70646 33.143706,247.98661 33.031521,247.33657 C 32.900954,246.67049 32.202085,245.78245 30.934913,244.67245 C 29.190240,243.14426 27.920577,242.38913 27.125916,242.40706 C 26.315171,242.44340 23.121098,243.45914 17.543695,245.45427 C 12.843817,247.11460 9.4364097,247.65137 7.3214604,247.06457 C 5.1881823,246.46173 3.0931003,245.25946 1.0362059,243.45774 C -1.8837915,240.90002 -3.6946696,238.63224 -4.3964378,236.65439 C -5.1165069,234.66052 -5.0487168,232.41556 -4.1930584,229.91948 C -3.3212551,227.40512 -1.8156180,224.92665 0.32385743,222.48408 C 2.4473003,220.05995 4.5611918,218.27655 6.6655365,217.13386 C 8.7676388,215.95684 10.717835,215.36073 12.516130,215.34556 C 14.330539,215.31212 15.749746,215.58158 16.773751,216.15394 C 17.813863,216.70804 19.252160,217.78939 21.088644,219.39800 L 23.209797,221.25598"
         id="path13967" />
      <path
         id="path13966"
         style="font-size:75.000000;font-style:normal;font-variant:normal;font-weight:normal;font-stretch:condensed;stroke:none;stroke-width:1.0000000pt;stroke-linecap:butt;stroke-linejoin:miter;stroke-opacity:1.0000000;font-family:Impact;text-anchor:start;writing-mode:lr"
         d="M 71.748561,178.55311 L 79.503410,187.58176 C 82.350815,190.89693 84.275950,193.47551 85.278824,195.31752 C 86.265749,197.14107 86.793495,199.19807 86.862056,201.48857 C 86.914669,203.76059 86.358171,205.96039 85.192563,208.08796 C 84.029529,210.18114 82.336803,212.18217 80.114387,214.09104 C 77.632654,216.22264 75.299946,217.75958 73.116253,218.70187 C 70.916638,219.62566 68.866039,219.95479 66.964454,219.68927 C 65.065474,219.38933 63.244155,218.63649 61.500487,217.43074 C 59.740918,216.20649 57.516956,214.02940 54.828605,210.89945 L 46.715839,201.45410 C 43.772993,198.02787 41.844785,195.03354 40.931205,192.47111 C 40.017675,189.90874 40.022870,187.21696 40.946789,184.39578 C 41.870760,181.57468 43.832874,178.87561 46.833143,176.29856 C 49.351918,174.13521 51.835632,172.66167 54.284291,171.87793 C 56.735583,171.05988 58.969003,170.83118 60.984552,171.19186 C 63.000107,171.55264 64.732630,172.22084 66.182127,173.19644 C 67.650139,174.15625 69.505618,175.94180 71.748561,178.55311 M 58.139151,185.41495 C 56.516610,183.52591 55.396674,182.42811 54.779352,182.12151 C 54.146139,181.79649 53.496163,181.92029 52.829422,182.49291 C 52.162701,183.06563 51.932964,183.69743 52.140208,184.38832 C 52.331567,185.06078 53.238519,186.34152 54.861058,188.23055 L 69.153845,204.87103 C 70.649132,206.61196 71.738557,207.65552 72.422122,208.00170 C 73.089763,208.32940 73.747693,208.21486 74.395913,207.65808 C 75.062631,207.08544 75.291063,206.47085 75.081204,205.81432 C 74.889846,205.14193 74.110157,204.00934 72.742131,202.41658 L 58.139151,185.41495" />
      <path
         style="font-size:75.000000;font-style:normal;font-variant:normal;font-weight:normal;font-stretch:condensed;stroke:none;stroke-width:1.0000000pt;stroke-linecap:butt;stroke-linejoin:miter;stroke-opacity:1.0000000;font-family:Impact;text-anchor:start;writing-mode:lr"
         d="M 84.233677,148.36608 L 86.566076,152.18532 C 86.434807,150.10858 86.751311,148.27112 87.515593,146.67294 C 88.286072,145.04088 89.504326,143.64810 91.170364,142.49459 C 93.257941,141.04935 95.304607,140.35988 97.310364,140.42619 C 99.316125,140.49261 101.03084,141.14650 102.45450,142.38786 C 103.86426,143.60926 105.77819,145.96626 108.19629,149.45888 L 127.58269,177.46045 L 115.41856,185.88207 L 96.261461,158.21170 C 94.357568,155.46176 93.106834,153.84823 92.509263,153.37107 C 91.911701,152.89401 91.201427,152.94034 90.378435,153.51007 C 89.515310,154.10769 89.216544,154.83419 89.482133,155.68956 C 89.733838,156.52495 90.901968,158.44807 92.986521,161.45895 L 111.68502,188.46693 L 99.520892,196.88855 L 71.858789,156.93361 L 84.233677,148.36608"
         id="path13964" />
      <path
         id="path13963"
         style="font-size:75.000000;font-style:normal;font-variant:normal;font-weight:normal;font-stretch:condensed;stroke:none;stroke-width:1.0000000pt;stroke-linecap:butt;stroke-linejoin:miter;stroke-opacity:1.0000000;font-family:Impact;text-anchor:start;writing-mode:lr"
         d="M 153.26996,136.09354 L 136.48850,145.32467 L 141.55415,154.53362 C 142.61316,156.45884 143.43468,157.62305 144.01872,158.02624 C 144.60273,158.42945 145.29048,158.41337 146.08197,157.97799 C 147.06596,157.43672 147.51835,156.71418 147.43916,155.81036 C 147.36956,154.87341 146.75231,153.34606 145.58741,151.22830 L 142.49860,145.61309 L 154.78789,138.85302 L 156.51762,141.99754 C 157.96492,144.62869 158.90576,146.74431 159.34014,148.34437 C 159.79586,149.93272 159.85534,151.86441 159.51858,154.13945 C 159.18177,156.41452 158.29573,158.47623 156.86046,160.32457 C 155.43478,162.13977 153.31012,163.82398 150.48649,165.37721 C 147.74839,166.88338 145.11350,167.81729 142.58179,168.17896 C 140.05006,168.54065 137.81940,168.36055 135.88981,167.63869 C 133.96983,166.88368 132.33221,165.80615 130.97694,164.40612 C 129.60991,162.98472 128.05565,160.69106 126.31414,157.52514 L 119.48346,145.10750 C 117.43604,141.38545 116.32667,138.17833 116.15536,135.48612 C 115.97231,132.77260 116.71339,130.21942 118.37859,127.82658 C 120.03206,125.41245 122.34548,123.38756 125.31886,121.75190 C 128.95538,119.75159 132.33258,118.79944 135.45046,118.89547 C 138.57797,118.95844 141.24186,119.87545 143.44214,121.64652 C 145.65202,123.38454 147.89248,126.31778 150.16350,130.44625 L 153.26996,136.09354 M 136.46229,136.31116 L 134.75021,133.19872 C 133.53822,130.99546 132.63807,129.63767 132.04975,129.12532 C 131.46144,128.61307 130.80364,128.55695 130.07633,128.95697 C 129.17790,129.45123 128.77470,130.03526 128.86672,130.70905 C 128.94699,131.36155 129.64606,132.88568 130.96395,135.28146 L 132.67603,138.39389 L 136.46229,136.31116" />
      <path
         id="path13961"
         style="font-size:75.000000;font-style:normal;font-variant:normal;font-weight:normal;font-stretch:condensed;stroke:none;stroke-width:1.0000000pt;stroke-linecap:butt;stroke-linejoin:miter;stroke-opacity:1.0000000;font-family:Impact;text-anchor:start;writing-mode:lr"
         d="M 209.60777,104.08611 L 213.76916,115.23675 C 215.29711,119.33107 216.21376,122.41571 216.51911,124.49068 C 216.81586,126.54282 216.60107,128.65557 215.87472,130.82892 C 215.13979,132.97943 213.85812,134.85189 212.02971,136.44631 C 210.21559,138.00933 207.93615,139.30300 205.19140,140.32734 C 202.12638,141.47119 199.40651,142.10838 197.03178,142.23892 C 194.64848,142.34660 192.61032,141.94762 190.91729,141.04198 C 189.23859,140.10495 187.78912,138.76965 186.56887,137.03610 C 185.34009,135.27969 184.00439,132.46870 182.56177,128.60313 L 178.20832,116.93784 C 176.62914,112.70634 175.85313,109.23046 175.88028,106.51017 C 175.90745,103.78995 176.84155,101.26545 178.68256,98.936629 C 180.52359,96.607914 183.29683,94.752100 187.00227,93.369190 C 190.11301,92.208323 192.95272,91.682754 195.52140,91.792494 C 198.10441,91.870924 200.27948,92.427278 202.04661,93.461567 C 203.81373,94.495953 205.20908,95.721144 206.23268,97.137161 C 207.27912,98.544728 208.40415,100.86104 209.60777,104.08611 M 194.46623,105.82806 C 193.59554,103.49504 192.92342,102.07811 192.44988,101.57727 C 191.96779,101.05363 191.31504,100.94545 190.49161,101.25271 C 189.66817,101.56005 189.23446,102.07371 189.19046,102.79367 C 189.13792,103.49085 189.54699,105.00595 190.41769,107.33896 L 198.08744,127.89047 C 198.88983,130.04056 199.55204,131.39604 200.07408,131.95691 C 200.58756,132.49494 201.24458,132.61456 202.04516,132.31578 C 202.86857,132.00850 203.29512,131.51054 203.32480,130.82193 C 203.37732,130.12481 203.03654,128.79270 202.30244,126.82559 L 194.46623,105.82806" />
      <path
         style="font-size:75.000000;font-style:normal;font-variant:normal;font-weight:normal;font-stretch:condensed;stroke:none;stroke-width:1.0000000pt;stroke-linecap:butt;stroke-linejoin:miter;stroke-opacity:1.0000000;font-family:Impact;text-anchor:start;writing-mode:lr"
         d="M 231.01923,69.066388 L 233.06404,76.289867 C 230.12766,77.121153 228.42923,77.754182 227.96873,78.188961 C 227.52508,78.593707 227.48280,79.430316 227.84188,80.698777 L 228.26082,82.178709 L 234.25103,80.483008 L 236.34571,87.882675 L 232.96301,88.840245 L 243.78554,127.07183 L 229.55000,131.10160 L 218.72747,92.870018 L 215.80284,93.697917 L 213.70816,86.298250 L 216.63278,85.470351 C 215.76167,82.393086 215.28553,80.307698 215.20434,79.214193 C 215.12318,78.120804 215.38064,77.058354 215.97672,76.026868 C 216.58966,74.965349 217.58799,74.010350 218.97171,73.161861 C 220.35545,72.313496 222.63295,71.440428 225.80423,70.542641 L 231.01923,69.066388"
         id="path13959" />
      <path
         style="font-size:75.000000;font-style:normal;font-variant:normal;font-weight:normal;font-stretch:condensed;stroke:none;stroke-width:1.0000000pt;stroke-linecap:butt;stroke-linejoin:miter;stroke-opacity:1.0000000;font-family:Impact;text-anchor:start;writing-mode:lr"
         d="M 276.89438,63.910603 L 278.19255,71.453508 L 282.12642,70.776472 L 283.43079,78.355476 L 279.49693,79.032515 L 283.90700,104.65676 C 284.44944,107.80867 284.90811,109.53816 285.28303,109.84522 C 285.68198,110.14817 287.07243,110.09466 289.45443,109.68470 L 290.78366,117.40805 L 284.90091,118.42051 C 281.58056,118.99196 279.18785,119.26751 277.72276,119.24715 C 276.25350,119.20274 274.89263,118.78047 273.64014,117.98034 C 272.38351,117.15615 271.51313,116.12923 271.02900,114.89957 C 270.54073,113.64588 269.88664,110.63706 269.06674,105.87310 L 264.88029,81.548111 L 261.74041,82.088496 L 260.43603,74.509500 L 263.57590,73.969104 L 262.27773,66.426198 L 276.89438,63.910603"
         id="path13958" />
      <path
         style="font-size:75.000000;font-style:normal;font-variant:normal;font-weight:normal;font-stretch:condensed;stroke:none;stroke-width:1.0000000pt;stroke-linecap:butt;stroke-linejoin:miter;stroke-opacity:1.0000000;font-family:Impact;text-anchor:start;writing-mode:lr"
         d="M 306.78960,56.008761 L 307.93472,69.289558 C 309.09886,68.013006 310.38550,67.019909 311.79461,66.310249 C 313.22801,65.598590 314.78388,65.170377 316.46225,65.025619 C 319.04055,64.803354 321.28631,65.271345 323.19956,66.429576 C 325.13706,67.585816 326.37488,69.010627 326.91300,70.704014 C 327.47328,72.371068 327.94953,75.478849 328.34176,80.027364 L 331.22028,113.41179 L 316.48006,114.68274 L 313.54176,80.605092 C 313.29846,77.783561 312.99627,75.984028 312.63519,75.206471 C 312.29839,74.426893 311.64354,74.079030 310.67060,74.162883 C 309.77061,74.240520 309.19816,74.706459 308.95328,75.560690 C 308.70836,76.415005 308.69182,78.070497 308.90367,80.527157 L 311.88286,115.07913 L 297.14262,116.35009 L 292.04937,57.279722 L 306.78960,56.008761"
         id="path13957" />
      <path
         id="path13956"
         style="font-size:75.000000;font-style:normal;font-variant:normal;font-weight:normal;font-stretch:condensed;stroke:none;stroke-width:1.0000000pt;stroke-linecap:butt;stroke-linejoin:miter;stroke-opacity:1.0000000;font-family:Impact;text-anchor:start;writing-mode:lr"
         d="M 374.11440,82.205064 L 373.90441,94.105066 C 373.82728,98.474519 373.55094,101.68058 373.07541,103.72328 C 372.60024,105.74159 371.62685,107.62900 370.15523,109.38553 C 368.68399,111.11765 366.80576,112.39087 364.52057,113.20517 C 362.26015,113.99549 359.66534,114.36480 356.73613,114.31312 C 353.46514,114.25539 350.70083,113.85257 348.44318,113.10461 C 346.18594,112.33224 344.43536,111.21475 343.19145,109.75215 C 341.97236,108.26557 341.11240,106.49231 340.61157,104.43236 C 340.11115,102.34803 339.89734,99.243192 339.97014,95.117849 L 340.18981,82.668607 C 340.26949,78.152751 340.81995,74.634084 341.84116,72.112609 C 342.86235,69.591216 344.65586,67.583974 347.22167,66.090879 C 349.78746,64.597877 353.04759,63.886244 357.00207,63.955973 C 360.32185,64.014606 363.15681,64.565196 365.50696,65.607748 C 367.88191,66.626419 369.70227,67.940476 370.96805,69.549926 C 372.23376,71.159466 373.08367,72.810457 373.51778,74.502910 C 373.97623,76.195870 374.17510,78.763248 374.11440,82.205064 M 359.38639,78.282496 C 359.43031,75.792682 359.32362,74.228063 359.06632,73.588619 C 358.80943,72.924842 358.24160,72.585184 357.36285,72.569636 C 356.48406,72.554168 355.89241,72.873368 355.58787,73.527238 C 355.28373,74.156774 355.10970,75.716447 355.06578,78.206251 L 354.67876,100.13887 C 354.63826,102.43345 354.75823,103.93726 355.03867,104.65032 C 355.31951,105.33898 355.88713,105.69085 356.74151,105.70592 C 357.62026,105.72143 358.19950,105.41423 358.47923,104.78428 C 358.78333,104.15480 358.95391,102.79041 358.99098,100.69111 L 359.38639,78.282496" />
      <path
         style="font-size:75.000000;font-style:normal;font-variant:normal;font-weight:normal;font-stretch:condensed;stroke:none;stroke-width:1.0000000pt;stroke-linecap:butt;stroke-linejoin:miter;stroke-opacity:1.0000000;font-family:Impact;text-anchor:start;writing-mode:lr"
         d="M 416.11803,85.085253 L 403.09689,83.558348 L 403.40399,80.939577 C 403.66555,78.708800 403.69710,77.286784 403.49864,76.673521 C 403.32723,76.038927 402.73233,75.661902 401.71394,75.542441 C 400.88949,75.445802 400.23846,75.652145 399.76088,76.161475 C 399.28609,76.646627 398.98473,77.434762 398.85679,78.525883 C 398.68333,80.005038 398.65237,81.107569 398.76391,81.833471 C 398.90250,82.538035 399.43268,83.362226 400.35443,84.306046 C 401.30040,85.252771 403.28134,86.701838 406.29727,88.653255 C 410.32034,91.239036 412.89065,93.531527 414.00822,95.530734 C 415.12573,97.529981 415.47835,100.28757 415.06609,103.80350 C 414.60543,107.73167 413.74790,110.64232 412.49352,112.53547 C 411.24192,114.40438 409.35189,115.74367 406.82342,116.55333 C 404.32199,117.34157 401.38606,117.53808 398.01563,117.14286 C 394.28143,116.70497 391.14895,115.74769 388.61818,114.27102 C 386.11162,112.79719 384.47785,111.00783 383.71686,108.90292 C 382.95585,106.79801 382.81135,103.73299 383.28335,99.707814 L 383.55632,97.380021 L 396.57746,98.906923 L 396.21919,101.96216 C 395.91493,104.55670 395.87491,106.26041 396.09917,107.07329 C 396.34763,107.88905 396.95683,108.35379 397.92676,108.46751 C 398.96941,108.58978 399.72670,108.42049 400.19865,107.95961 C 400.67339,107.47450 401.00887,106.39539 401.20509,104.72228 C 401.47519,102.41874 401.37765,100.94471 400.91245,100.30019 C 400.42297,99.652857 397.77573,97.597155 392.97071,94.133092 C 388.93891,91.202191 386.56534,88.699252 385.84999,86.624249 C 385.13748,84.525060 384.94045,82.117572 385.25893,79.401773 C 385.71102,75.546390 386.55290,72.769098 387.78458,71.069888 C 389.01908,69.346514 390.90701,68.129891 393.44840,67.420022 C 396.01400,66.713087 398.90930,66.548685 402.13429,66.926809 C 405.33498,67.302182 408.00241,68.032858 410.13657,69.118834 C 412.29777,70.183497 413.89425,71.452282 414.92605,72.925203 C 415.98202,74.401049 416.56444,75.722990 416.67332,76.891038 C 416.80637,78.062006 416.73074,79.859864 416.44644,82.284620 L 416.11803,85.085253"
         id="path13954" />
      <path
         id="path13953"
         style="font-size:75.000000;font-style:normal;font-variant:normal;font-weight:normal;font-stretch:condensed;stroke:none;stroke-width:1.0000000pt;stroke-linecap:butt;stroke-linejoin:miter;stroke-opacity:1.0000000;font-family:Impact;text-anchor:start;writing-mode:lr"
         d="M 458.80667,103.61338 L 440.09746,99.515091 L 437.84848,109.78191 C 437.37830,111.92829 437.23032,113.34547 437.40454,114.03343 C 437.57872,114.72141 438.10702,115.16205 438.98944,115.35533 C 440.08646,115.59564 440.90265,115.34956 441.43802,114.61706 C 442.00242,113.86595 442.54322,112.30989 443.06043,109.94887 L 444.43174,103.68861 L 458.13276,106.68985 L 457.36482,110.19560 C 456.72222,113.12898 456.03776,115.34087 455.31143,116.83129 C 454.60887,118.32694 453.38202,119.82020 451.63089,121.31106 C 449.87968,122.80193 447.85549,123.77063 445.55834,124.21716 C 443.29020,124.64507 440.58213,124.51422 437.43414,123.82465 C 434.38151,123.15596 431.78326,122.12444 429.63941,120.73009 C 427.49552,119.33574 425.93493,117.73173 424.95760,115.91810 C 424.00934,114.08585 423.48593,112.19670 423.38737,110.25064 C 423.29401,108.28076 423.63392,105.53102 424.40710,102.00141 L 427.43968,88.157306 C 428.34866,84.007686 429.62480,80.863198 431.26810,78.723830 C 432.91660,76.560699 435.15519,75.126612 437.98389,74.421571 C 440.81776,73.692769 443.89219,73.691418 447.20717,74.417522 C 451.26140,75.305659 454.43041,76.812109 456.71423,78.936876 C 459.02704,81.043095 460.42865,83.487015 460.91905,86.268638 C 461.43844,89.031702 461.19404,92.714605 460.18583,97.317357 L 458.80667,103.61338 M 446.01126,92.712810 L 446.77135,89.242838 C 447.30942,86.786469 447.52565,85.171806 447.42006,84.398849 C 447.31442,83.625961 446.85619,83.150692 446.04536,82.973035 C 445.04370,82.753662 444.35572,82.927865 443.98143,83.495651 C 443.61232,84.039660 443.13524,85.647169 442.55016,88.318177 L 441.79005,91.788145 L 446.01126,92.712810" />
      <path
         id="path13951"
         style="font-size:75.000000;font-style:normal;font-variant:normal;font-weight:normal;font-stretch:condensed;stroke:none;stroke-width:1.0000000pt;stroke-linecap:butt;stroke-linejoin:miter;stroke-opacity:1.0000000;font-family:Impact;text-anchor:start;writing-mode:lr"
         d="M 531.45457,90.407384 L 510.54246,145.88651 L 496.69838,140.66818 L 497.93839,137.37849 C 496.09668,138.24975 494.31565,138.75249 492.59525,138.88674 C 490.87482,139.02097 489.21504,138.78670 487.61590,138.18393 C 485.46846,137.37448 483.81756,136.11297 482.66321,134.39940 C 481.51745,132.66298 480.99599,130.96620 481.09882,129.30905 C 481.22448,127.66052 481.92023,125.15714 483.18607,121.79892 L 491.20732,100.51878 C 492.52481,97.023530 493.67614,94.626653 494.66132,93.328144 C 495.66932,92.038327 497.17956,91.146506 499.19207,90.652683 C 501.21314,90.136098 503.33168,90.295425 505.54767,91.130661 C 507.26102,91.776536 508.70964,92.674801 509.89357,93.825468 C 511.10027,94.984822 512.05369,96.400878 512.75381,98.073638 L 517.61049,85.189048 L 531.45457,90.407384 M 509.52465,106.64052 C 510.15322,104.97286 510.42668,103.79749 510.34500,103.11439 C 510.28611,102.43996 509.83404,101.94342 508.98881,101.62478 C 508.16636,101.31481 507.50763,101.36656 507.01261,101.78001 C 506.54900,102.17930 505.98138,103.26989 505.30974,105.05177 L 496.91390,127.32567 C 496.21637,129.17612 495.89275,130.44999 495.94302,131.14729 C 496.00187,131.82175 496.41966,132.30537 497.19641,132.59814 C 498.08735,132.93398 498.80187,132.83804 499.33999,132.31032 C 499.88668,131.75976 500.63795,130.21658 501.59380,127.68078 L 509.52465,106.64052" />
      <path
         id="path13949"
         style="font-size:75.000000;font-style:normal;font-variant:normal;font-weight:normal;font-stretch:condensed;stroke:none;stroke-width:1.0000000pt;stroke-linecap:butt;stroke-linejoin:miter;stroke-opacity:1.0000000;font-family:Impact;text-anchor:start;writing-mode:lr"
         d="M 559.73552,143.70427 L 542.59834,135.15162 L 537.90501,144.55578 C 536.92381,146.52180 536.43348,147.85965 536.43403,148.56935 C 536.43454,149.27903 536.83893,149.83557 537.64720,150.23894 C 538.65204,150.74044 539.50364,150.70158 540.20200,150.12240 C 540.93307,149.53226 541.83826,148.15588 542.91759,145.99326 L 545.77937,140.25902 L 558.32917,146.52224 L 556.72657,149.73342 C 555.38558,152.42031 554.18057,154.39742 553.11157,155.66475 C 552.06432,156.94296 550.50932,158.09054 548.44655,159.10748 C 546.38372,160.12441 544.18402,160.56824 541.84743,160.43897 C 539.54355,160.29873 536.94986,159.50909 534.06638,158.07003 C 531.27023,156.67456 529.00347,155.03851 527.26608,153.16186 C 525.52866,151.28520 524.40809,149.34804 523.90438,147.35037 C 523.43339,145.34175 523.38825,143.38195 523.76898,141.47097 C 524.16059,139.53814 525.16315,136.95522 526.77666,133.72219 L 533.10529,121.04133 C 535.00223,117.24038 537.00916,114.50385 539.12608,112.83174 C 541.25387,111.13786 543.77537,110.29527 546.69059,110.30398 C 549.61664,110.29092 552.59790,111.04206 555.63435,112.55741 C 559.34791,114.41079 562.05185,116.64703 563.74618,119.26612 C 565.47317,121.87434 566.23401,124.58697 566.02871,127.40402 C 565.85606,130.21017 564.71771,133.72125 562.61366,137.93726 L 559.73552,143.70427 M 549.99712,130.00359 L 551.58336,126.82519 C 552.70624,124.57520 553.31108,123.06257 553.39789,122.28728 C 553.48462,121.51204 553.15665,120.93908 552.41396,120.56838 C 551.49644,120.11052 550.78675,120.11105 550.28489,120.56997 C 549.79386,121.00709 548.93785,122.44894 547.71685,124.89553 L 546.13061,128.07393 L 549.99712,130.00359" />
      <path
         id="path13947"
         style="font-size:75.000000;font-style:normal;font-variant:normal;font-weight:normal;font-stretch:condensed;stroke:none;stroke-width:1.0000000pt;stroke-linecap:butt;stroke-linejoin:miter;stroke-opacity:1.0000000;font-family:Impact;text-anchor:start;writing-mode:lr"
         d="M 583.91493,150.88219 L 572.18707,143.45961 L 573.93010,140.70557 C 575.94077,137.52866 577.84897,135.31256 579.65471,134.05725 C 581.49409,132.79444 583.93527,132.20139 586.97826,132.27811 C 590.02119,132.35489 593.30649,133.50959 596.83418,135.74221 C 601.06318,138.41881 603.77387,141.18900 604.96627,144.05279 C 606.17162,146.89601 606.29894,149.54806 605.34823,152.00895 C 604.41047,154.44924 601.79384,159.06293 597.49833,165.85003 L 584.45495,186.45889 L 572.29386,178.76212 L 574.60485,175.11070 C 572.91454,176.09229 571.22580,176.56927 569.53864,176.54161 C 567.88514,176.50636 566.22291,175.95995 564.55193,174.90239 C 562.36520,173.51840 560.73899,171.63683 559.67330,169.25767 C 558.64129,166.87094 559.43746,163.60431 562.06180,159.45778 L 564.19653,156.08485 C 566.14193,153.01108 567.95194,151.22401 569.62659,150.72365 C 571.30121,150.22333 574.52709,150.44475 579.30427,151.38791 C 584.42791,152.37705 587.31041,152.68451 587.95178,152.31029 C 588.59308,151.93610 589.45559,150.89287 590.53931,149.18061 C 591.89714,147.03516 592.61341,145.53822 592.68813,144.68979 C 592.79645,143.83382 592.47930,143.17081 591.73668,142.70075 C 590.89083,142.16546 590.18852,142.11102 589.62974,142.53743 C 589.08394,142.94325 588.08643,144.29109 586.63720,146.58094 L 583.91493,150.88219 M 584.31139,159.02088 C 581.38329,159.21910 579.44087,159.70887 578.48412,160.49018 C 577.54794,161.28455 576.49233,162.61006 575.31727,164.46671 C 573.97244,166.59155 573.23828,168.04827 573.11479,168.83689 C 573.01189,169.63857 573.37304,170.30053 574.19824,170.82279 C 574.98214,171.31894 575.63771,171.40157 576.16495,171.07072 C 576.72584,170.73228 577.65911,169.53160 578.96478,167.46865 L 584.31139,159.02088" />
      <path
         style="font-size:75.000000;font-style:normal;font-variant:normal;font-weight:normal;font-stretch:condensed;stroke:none;stroke-width:1.0000000pt;stroke-linecap:butt;stroke-linejoin:miter;stroke-opacity:1.0000000;font-family:Impact;text-anchor:start;writing-mode:lr"
         d="M 642.32870,155.80147 L 637.80976,161.79639 C 635.37275,159.95946 633.84190,158.98896 633.21719,158.88487 C 632.62659,158.77605 631.93453,159.24800 631.14100,160.30074 L 630.21517,161.52897 L 635.18658,165.27638 L 630.55743,171.41752 L 627.75005,169.30134 L 603.83278,201.03059 L 592.01839,192.12500 L 615.93565,160.39574 L 613.50844,158.56613 L 618.13758,152.42498 L 620.56480,154.25460 C 622.48991,151.70070 623.86351,150.06096 624.68562,149.33537 C 625.50766,148.60986 626.50969,148.17283 627.69173,148.02429 C 628.90788,147.87102 630.27211,148.08917 631.78439,148.67873 C 633.29660,149.26838 635.36868,150.55514 638.00065,152.53902 L 642.32870,155.80147"
         id="path13945" />
      <path
         style="font-size:75.000000;font-style:normal;font-variant:normal;font-weight:normal;font-stretch:condensed;stroke:none;stroke-width:1.0000000pt;stroke-linecap:butt;stroke-linejoin:miter;stroke-opacity:1.0000000;font-family:Impact;text-anchor:start;writing-mode:lr"
         d="M 644.97694,197.10666 L 638.32024,204.85788 L 623.56793,192.18870 L 630.22462,184.43748 L 644.97694,197.10666"
         id="path13944" />
      <path
         style="font-size:75.000000;font-style:normal;font-variant:normal;font-weight:normal;font-stretch:condensed;stroke:none;stroke-width:1.0000000pt;stroke-linecap:butt;stroke-linejoin:miter;stroke-opacity:1.0000000;font-family:Impact;text-anchor:start;writing-mode:lr"
         d="M 677.91667,201.96682 L 674.37555,204.93626 C 676.49606,204.52073 678.42856,204.58274 680.17305,205.12234 C 681.93526,205.64527 683.50946,206.64576 684.89568,208.12384 C 687.60113,211.00878 688.39484,214.53187 687.27684,218.69314 C 689.46413,218.34881 691.42167,218.43755 693.14948,218.95935 C 694.89498,219.46446 696.41908,220.41152 697.72179,221.80056 C 699.44190,223.63481 700.41624,225.56603 700.64485,227.59422 C 700.89001,229.64021 700.52128,231.44196 699.53867,232.99947 C 698.57371,234.54026 696.63991,236.67177 693.73723,239.39400 L 668.54746,263.01710 L 658.72747,252.54585 L 681.83367,230.87673 C 684.86102,228.03760 686.63067,226.17719 687.14265,225.29546 C 687.68902,224.41484 687.61152,223.60056 686.91016,222.85261 C 686.19197,222.08686 685.36819,221.92225 684.43881,222.35876 C 683.52601,222.81309 681.54704,224.46816 678.50188,227.32398 L 655.39568,248.99311 L 645.57568,238.52186 L 668.09421,217.40385 C 671.56678,214.14723 673.56684,212.10421 674.09439,211.27479 C 674.63857,210.46320 674.55161,209.67453 673.83353,208.90876 C 673.38256,208.42795 672.81147,208.19372 672.12022,208.20606 C 671.44670,208.20173 670.82614,208.43226 670.25853,208.89765 C 669.70865,209.34637 668.57894,210.37235 666.86938,211.97561 L 642.29400,235.02253 L 632.47400,224.55129 L 667.92132,191.30859 L 677.91667,201.96682"
         id="path13943" />
      <path
         style="font-size:75.000000;font-style:normal;font-variant:normal;font-weight:normal;font-stretch:condensed;stroke:none;stroke-width:1.0000000pt;stroke-linecap:butt;stroke-linejoin:miter;stroke-opacity:1.0000000;font-family:Impact;text-anchor:start;writing-mode:lr"
         d="M 732.09247,267.89403 L 692.82614,296.52523 L 683.95846,284.36362 L 687.36442,282.19741 C 685.43859,282.33258 683.69441,282.03318 682.13191,281.29918 C 680.60349,280.57050 679.26394,279.41709 678.11323,277.83896 C 676.80429,276.04380 676.03394,274.32428 675.80217,272.68039 C 675.57038,271.03650 675.76869,269.54733 676.39708,268.21290 C 677.03985,266.89821 677.87311,265.76187 678.89686,264.80389 C 679.94032,263.83155 682.14871,262.11554 685.52200,259.65589 L 712.00531,240.34547 L 720.72197,252.29995 L 694.00194,271.78298 C 690.94426,274.01247 689.19412,275.42457 688.75151,276.01925 C 688.32325,276.63364 688.41119,277.35511 689.01534,278.18364 C 689.66260,279.07134 690.33967,279.37834 691.04657,279.10466 C 691.76781,278.85067 693.73618,277.55139 696.95167,275.20682 L 723.37581,255.93955 L 732.09247,267.89403"
         id="path13942" />
      <path
         style="font-size:75.000000;font-style:normal;font-variant:normal;font-weight:normal;font-stretch:condensed;stroke:none;stroke-width:1.0000000pt;stroke-linecap:butt;stroke-linejoin:miter;stroke-opacity:1.0000000;font-family:Impact;text-anchor:start;writing-mode:lr"
         d="M 752.89060,289.22986 L 746.34808,293.20179 L 748.41956,296.61392 L 741.84575,300.60484 L 739.77426,297.19272 L 717.54847,310.68587 C 714.81458,312.34557 713.37347,313.40611 713.22516,313.86746 C 713.08948,314.34966 713.64879,315.62380 714.90310,317.68987 L 708.20406,321.75682 L 705.10633,316.65428 C 703.35792,313.77430 702.22475,311.64900 701.70681,310.27836 C 701.20973,308.89502 701.10394,307.47408 701.38945,306.01551 C 701.69582,304.54427 702.33237,303.35812 703.29908,302.45708 C 704.28665,301.54335 706.84650,299.83220 710.97862,297.32362 L 732.07747,284.51462 L 730.42408,281.79119 L 736.99791,277.80026 L 738.65129,280.52370 L 745.19381,276.55177 L 752.89060,289.22986"
         id="path13941" />
      <path
         id="path13940"
         style="font-size:75.000000;font-style:normal;font-variant:normal;font-weight:normal;font-stretch:condensed;stroke:none;stroke-width:1.0000000pt;stroke-linecap:butt;stroke-linejoin:miter;stroke-opacity:1.0000000;font-family:Impact;text-anchor:start;writing-mode:lr"
         d="M 747.90656,347.85923 L 739.39921,330.69951 L 729.98270,335.36799 C 728.01407,336.34397 726.81590,337.11512 726.38818,337.68143 C 725.96043,338.24772 725.94718,338.93554 726.34844,339.74486 C 726.84727,340.75103 727.54986,341.23382 728.45624,341.19323 C 729.39530,341.16363 730.94757,340.61206 733.11307,339.53848 L 738.85484,336.69186 L 745.08490,349.25815 L 741.86949,350.85226 C 739.17903,352.18609 737.02524,353.03588 735.40811,353.40165 C 733.80178,353.78925 731.86931,353.76633 729.61070,353.33289 C 727.35205,352.89940 725.32999,351.92628 723.54452,350.41353 C 721.79174,348.91175 720.19962,346.71724 718.76818,343.82997 C 717.38011,341.03015 716.55936,338.35783 716.30594,335.81301 C 716.05251,333.26816 716.32754,331.04721 717.13100,329.15014 C 717.96717,327.26409 719.11353,325.67389 720.57006,324.37955 C 722.04845,323.07435 724.40628,321.61927 727.64356,320.01431 L 740.34110,313.71919 C 744.14704,311.83230 747.39854,310.86066 750.09561,310.80427 C 752.81446,310.73706 755.33372,311.58630 757.65340,313.35199 C 759.99486,315.10687 761.91928,317.50451 763.42670,320.54491 C 765.27018,324.26340 766.07749,327.67812 765.84864,330.78908 C 765.65240,333.91106 764.62266,336.53343 762.75940,338.65621 C 760.92876,340.79000 757.90269,342.90337 753.68115,344.99634 L 747.90656,347.85923 M 748.40565,331.05756 L 751.58824,329.47972 C 753.84116,328.36276 755.23610,327.52131 755.77306,326.95537 C 756.30993,326.38943 756.39403,325.73462 756.02537,324.99092 C 755.56987,324.07223 755.00356,323.64450 754.32646,323.70772 C 753.67112,323.76010 752.11857,324.39356 749.66880,325.60812 L 746.48620,327.18597 L 748.40565,331.05756" />
      <path
         style="font-size:75.000000;font-style:normal;font-variant:normal;font-weight:normal;font-stretch:condensed;stroke:none;stroke-width:1.0000000pt;stroke-linecap:butt;stroke-linejoin:miter;stroke-opacity:1.0000000;font-family:Impact;text-anchor:start;writing-mode:lr"
         d="M 771.74453,382.24007 L 767.07798,369.98835 L 769.54201,369.04983 C 771.64096,368.25034 772.91644,367.62084 773.36846,367.16131 C 773.85188,366.71590 773.91114,366.01409 773.54620,365.05586 C 773.25069,364.28014 772.76672,363.79830 772.09428,363.61031 C 771.44458,363.41363 770.60641,363.51082 769.57977,363.90187 C 768.18801,364.43196 767.19610,364.91427 766.60401,365.34881 C 766.04337,365.79746 765.55769,366.64864 765.14699,367.90234 C 764.74492,369.17884 764.37595,371.60532 764.04008,375.18178 C 763.60740,379.94456 762.76308,383.28360 761.50711,385.19889 C 760.25109,387.11415 757.96900,388.70181 754.66083,389.96189 C 750.96476,391.36965 747.98742,391.95506 745.72881,391.71813 C 743.49297,391.47245 741.43156,390.41581 739.54458,388.54819 C 737.68909,386.69464 736.15738,384.18223 734.94947,381.01096 C 733.61120,377.49741 733.01168,374.27726 733.15090,371.35048 C 733.29881,368.44651 734.13004,366.17052 735.64460,364.52253 C 737.15913,362.87453 739.81006,361.32925 743.59738,359.88670 L 745.78763,359.05246 L 750.45418,371.30417 L 747.57948,372.39912 C 745.13824,373.32895 743.60908,374.08120 742.99198,374.65588 C 742.38355,375.25337 742.25313,376.00842 742.60074,376.92104 C 742.97440,377.90207 743.47466,378.49528 744.10153,378.70066 C 744.75117,378.89732 745.86313,378.69585 747.43739,378.09625 C 749.60480,377.27068 750.86672,376.50266 751.22311,375.79219 C 751.57078,375.05887 752.16957,371.76110 753.01950,365.89888 C 753.75416,360.96878 754.87605,357.70690 756.38519,356.11321 C 757.91709,354.51085 759.96070,353.22302 762.51602,352.24972 C 766.14359,350.86802 768.99544,350.33040 771.07160,350.63687 C 773.17048,350.93468 775.12216,352.04618 776.92663,353.97139 C 778.73969,355.91943 780.22414,358.41065 781.37997,361.44505 C 782.52699,364.45665 783.11242,367.15967 783.13625,369.55412 C 783.19147,371.96269 782.80459,373.96493 781.97563,375.56083 C 781.15525,377.17952 780.25238,378.30717 779.26702,378.94377 C 778.29026,379.60316 776.66114,380.36735 774.37968,381.23637 L 771.74453,382.24007"
         id="path13938" />
    </g>
  </g>
</svg>
